<svg width="16" height="16" viewBox="0 0 16 16" fill="none" xmlns="http://www.w3.org/2000/svg">
<rect width="16" height="13.3333" rx="3" fill="current"/>
<path d="M6.82415 3C7.24211 3 8.03271 3.24383 8.03271 4.16664V5.83326H11.457C12.0129 5.83381 12.4634 6.20657 12.4641 6.66657C12.4638 6.8033 12.4223 6.93781 12.3432 7.05789C12.5495 7.21413 12.6666 7.43515 12.6655 7.66654C12.6648 7.95149 12.4877 8.21627 12.1964 8.36819C12.3705 8.74319 12.1947 9.16753 11.7792 9.37533C11.8326 9.46601 11.8602 9.56562 11.8598 9.66649C11.8598 10.0347 11.4991 10.3331 11.0541 10.3331H7.83128C7.0011 10.3394 6.17828 10.2039 5.41417 9.93532V6.49991L6.634 3.11183C6.66219 3.04489 6.73847 3 6.82415 3ZM4.43221 6.16658C4.75204 6.16658 5.01131 6.38461 5.01131 6.65355V9.67951C5.01131 9.94845 4.75204 10.1665 4.43221 10.1665H3.979C3.65917 10.1665 3.3999 9.94845 3.3999 9.67951V6.65355C3.3999 6.38461 3.65917 6.16658 3.979 6.16658H4.43221Z" fill="white"/>
<path d="M4 16V12.6667L8 13.3333L4 16Z" fill="current"/>
</svg>
