<svg width="16" height="16" viewBox="0 0 16 16" fill="none" xmlns="http://www.w3.org/2000/svg">
<circle cx="8" cy="8" r="8" fill="current"/>
<path d="M6.95825 9.53788V9.40909C6.96078 8.96717 6.99992 8.6149 7.07568 8.35227C7.15396 8.08965 7.2676 7.87753 7.41659 7.71591C7.56558 7.55429 7.74487 7.40783 7.95446 7.27652C8.11103 7.17551 8.25118 7.07071 8.37492 6.96212C8.49866 6.85354 8.59714 6.73359 8.67037 6.60227C8.74361 6.46843 8.78022 6.31944 8.78022 6.1553C8.78022 5.98106 8.73856 5.82828 8.65522 5.69697C8.57189 5.56566 8.45951 5.46465 8.3181 5.39394C8.17921 5.32323 8.02517 5.28788 7.85598 5.28788C7.69184 5.28788 7.53654 5.32449 7.39007 5.39773C7.24361 5.46843 7.12366 5.5745 7.03022 5.71591C6.93679 5.8548 6.88628 6.02778 6.87871 6.23485H5.33325C5.34588 5.7298 5.46709 5.31313 5.69689 4.98485C5.92669 4.65404 6.23098 4.40783 6.60977 4.24621C6.98856 4.08207 7.40648 4 7.86355 4C8.36608 4 8.81052 4.08333 9.19689 4.25C9.58325 4.41414 9.88628 4.65278 10.106 4.96591C10.3257 5.27904 10.4355 5.65657 10.4355 6.09848C10.4355 6.39394 10.3863 6.65657 10.2878 6.88636C10.1918 7.11364 10.0567 7.31566 9.88249 7.49242C9.70825 7.66667 9.50244 7.8245 9.26507 7.96591C9.06558 8.0846 8.90143 8.20833 8.77265 8.33712C8.64638 8.46591 8.55169 8.6149 8.48856 8.78409C8.42795 8.95328 8.39638 9.16162 8.39386 9.40909V9.53788H6.95825ZM7.70825 11.9621C7.45573 11.9621 7.23982 11.8737 7.06052 11.697C6.88376 11.5177 6.79664 11.303 6.79916 11.053C6.79664 10.8056 6.88376 10.5934 7.06052 10.4167C7.23982 10.2399 7.45573 10.1515 7.70825 10.1515C7.94815 10.1515 8.15901 10.2399 8.34083 10.4167C8.52265 10.5934 8.61482 10.8056 8.61734 11.053C8.61482 11.2197 8.57063 11.3725 8.48477 11.5114C8.40143 11.6477 8.29159 11.7576 8.15522 11.8409C8.01886 11.9217 7.86987 11.9621 7.70825 11.9621Z" fill="white"/>
</svg>
