<svg width="24" height="24" viewBox="0 0 24 24" fill="none" xmlns="http://www.w3.org/2000/svg">
<path d="M21.3302 2.26024C20.9849 1.90365 20.4324 1.90365 20.087 2.26024L16.9561 5.49327C13.0655 3.68657 8.92157 4.12636 4.97337 6.78886C2.0266 8.77385 0.242431 11.2699 0.173366 11.3769C-0.0568498 11.7097 -0.0568498 12.1614 0.196388 12.4942C1.86545 14.6099 3.6266 16.2621 5.41078 17.4151L2.64819 20.2678C2.30286 20.6243 2.30286 21.1949 2.64819 21.5633C2.82085 21.7416 3.03955 21.8367 3.26977 21.8367C3.49998 21.8367 3.71869 21.7416 3.89135 21.5633L21.3302 3.55583C21.6755 3.19924 21.6755 2.62871 21.3302 2.26024ZM9.81941 12.8746C9.69279 12.5774 9.62373 12.2565 9.62373 11.9118C9.62373 11.2581 9.86545 10.64 10.3144 10.1764C11.0165 9.45136 12.064 9.27307 12.9273 9.65342L9.81941 12.8746ZM14.2396 8.31029C12.6396 7.25242 10.4755 7.4426 9.08272 8.88082C8.29998 9.68908 7.87409 10.7588 7.87409 11.8999C7.87409 12.7319 8.1043 13.5283 8.5302 14.2058L6.7115 16.0838C5.12301 15.1329 3.55754 13.7304 2.0266 11.888C2.68272 11.1035 4.0525 9.58211 5.94027 8.31029C9.19783 6.11135 12.4439 5.6359 15.6093 6.88395L14.2396 8.31029Z" fill="#CED1DD"/>
<path d="M23.8043 11.3307C22.5957 9.79734 21.341 8.50175 20.0633 7.46766C19.6719 7.15862 19.1194 7.22993 18.8201 7.62217C18.5209 8.01442 18.5899 8.58495 18.9698 8.90588C19.9827 9.71414 20.9842 10.7363 21.9626 11.9131C21.3871 12.6144 20.259 13.8624 18.7281 15.0154C15.7813 17.2262 12.8115 18.0226 9.89928 17.3926C9.42734 17.2856 8.9554 17.6065 8.8518 18.0939C8.7482 18.5812 9.05899 19.0685 9.53093 19.1755C10.2906 19.3419 11.0504 19.4251 11.8216 19.4251C12.9727 19.4251 14.1468 19.2349 15.2978 18.8665C16.8173 18.3791 18.3367 17.5709 19.7986 16.4655C22.2619 14.5993 23.7353 12.543 23.8043 12.4598C24.0576 12.1151 24.0576 11.6635 23.8043 11.3307Z" fill="#CED1DD"/>
<defs>
<clipPath id="clip0">
<rect width="24" height="19.8261" fill="white" transform="translate(0 2)"/>
</clipPath>
</defs>
</svg>
