<svg width="73" height="72" viewBox="0 0 73 72" fill="none" xmlns="http://www.w3.org/2000/svg">
<circle cx="36.7911" cy="36" r="28" fill="#6573FF"/>
<path fill-rule="evenodd" clip-rule="evenodd" d="M36.7911 72C56.6734 72 72.7911 55.8823 72.7911 36C72.7911 16.1177 56.6734 0 36.7911 0C16.9089 0 0.791138 16.1177 0.791138 36C0.791138 55.8823 16.9089 72 36.7911 72ZM36.7911 68C54.4642 68 68.7911 53.6731 68.7911 36C68.7911 18.3269 54.4642 4 36.7911 4C19.118 4 4.79114 18.3269 4.79114 36C4.79114 53.6731 19.118 68 36.7911 68Z" fill="#EBECF7"/>
<path fill-rule="evenodd" clip-rule="evenodd" d="M67.1185 46.2371C68.2031 43.0229 68.791 39.5801 68.791 36C68.791 18.3269 54.4641 4 36.791 4C19.1179 4 4.79102 18.3269 4.79102 36C4.79102 53.6034 19.0051 67.8869 36.582 67.9993V71.0009L36.333 71.9971C16.6618 71.7519 0.791016 55.7293 0.791016 36C0.791016 16.1177 16.9088 0 36.791 0C56.6733 0 72.791 16.1177 72.791 36C72.791 40.0039 72.1374 43.8551 70.931 47.4527L67.1185 46.2371Z" fill="#A4D411"/>
<path d="M26.791 42.2699V39.1271L36.0488 24.5H38.6696V28.9744H37.0716L30.8393 38.8501V39.0206H43.7619V42.2699H26.791ZM37.1994 46.3182V41.3111L37.242 39.9048V24.5H40.9707V46.3182H37.1994Z" fill="white"/>
</svg>
