<svg width="72" height="72" viewBox="0 0 72 72" fill="none" xmlns="http://www.w3.org/2000/svg">
<circle cx="36.0001" cy="36" r="28" fill="#CED1DD"/>
<path fill-rule="evenodd" clip-rule="evenodd" d="M36.0001 72C55.8824 72 72.0001 55.8823 72.0001 36C72.0001 16.1177 55.8824 0 36.0001 0C16.1179 0 0.00012207 16.1177 0.00012207 36C0.00012207 55.8823 16.1179 72 36.0001 72ZM36.0001 68C53.6732 68 68.0001 53.6731 68.0001 36C68.0001 18.3269 53.6732 4 36.0001 4C18.327 4 4.00012 18.3269 4.00012 36C4.00012 53.6731 18.327 68 36.0001 68Z" fill="#CED1DD"/>
<path d="M35.532 46.1165C34.1115 46.1165 32.8402 45.8501 31.718 45.3175C30.5959 44.7777 29.7045 44.0391 29.044 43.1016C28.3906 42.1641 28.0426 41.0916 28 39.8842H31.8352C31.9062 40.7791 32.2933 41.5107 32.9964 42.0788C33.6996 42.6399 34.5447 42.9205 35.532 42.9205C36.3061 42.9205 36.995 42.7429 37.5987 42.3878C38.2024 42.0327 38.6783 41.5391 39.0263 40.907C39.3743 40.2749 39.5447 39.554 39.5376 38.7443C39.5447 37.9205 39.3707 37.1889 39.0156 36.5497C38.6605 35.9105 38.174 35.4098 37.5561 35.0476C36.9382 34.6783 36.228 34.4936 35.4254 34.4936C34.772 34.4865 34.1293 34.6072 33.4972 34.8558C32.8651 35.1044 32.3643 35.4311 31.995 35.8359L28.4261 35.25L29.5661 24H42.2223V27.3026H32.8366L32.2081 33.0874H32.3359C32.7408 32.6115 33.3125 32.2173 34.0511 31.9048C34.7898 31.5852 35.5994 31.4254 36.4801 31.4254C37.8011 31.4254 38.9801 31.7379 40.017 32.3629C41.054 32.9808 41.8707 33.8331 42.4673 34.9197C43.0639 36.0064 43.3622 37.2493 43.3622 38.6484C43.3622 40.0902 43.0284 41.3757 42.3608 42.505C41.7003 43.6271 40.7805 44.5114 39.6016 45.1577C38.4297 45.7969 37.0732 46.1165 35.532 46.1165Z" fill="white"/>
</svg>
