<svg width="72" height="72" viewBox="0 0 72 72" fill="none" xmlns="http://www.w3.org/2000/svg">
<circle cx="36" cy="36" r="28" fill="#CED1DD"/>
<path d="M28.1278 46.6165V43.7614L35.7024 36.3359C36.4268 35.6044 37.0305 34.9545 37.5135 34.3864C37.9964 33.8182 38.3587 33.2678 38.6001 32.7351C38.8416 32.2024 38.9624 31.6342 38.9624 31.0305C38.9624 30.3416 38.8061 29.7521 38.4936 29.2621C38.1811 28.7649 37.7514 28.3814 37.2045 28.1115C36.6577 27.8416 36.0362 27.7067 35.3402 27.7067C34.6229 27.7067 33.9943 27.8558 33.4545 28.1541C32.9148 28.4453 32.4957 28.8608 32.1974 29.4006C31.9063 29.9403 31.7607 30.5831 31.7607 31.3288H28C28 29.9439 28.3161 28.7401 28.9482 27.7173C29.5803 26.6946 30.4503 25.9027 31.5582 25.3416C32.6733 24.7805 33.9517 24.5 35.3935 24.5C36.8565 24.5 38.142 24.7734 39.25 25.3203C40.358 25.8672 41.2173 26.6165 41.8281 27.5682C42.446 28.5199 42.755 29.6065 42.755 30.8281C42.755 31.6449 42.5987 32.4474 42.2862 33.2358C41.9737 34.0241 41.4233 34.8977 40.6349 35.8565C39.8537 36.8153 38.7564 37.9766 37.343 39.3402L33.5824 43.1648V43.3139H43.0852V46.6165H28.1278Z" fill="white"/>
<path fill-rule="evenodd" clip-rule="evenodd" d="M36 72C55.8823 72 72 55.8823 72 36C72 16.1177 55.8823 0 36 0C16.1177 0 0 16.1177 0 36C0 55.8823 16.1177 72 36 72ZM36 68C53.6731 68 68 53.6731 68 36C68 18.3269 53.6731 4 36 4C18.3269 4 4 18.3269 4 36C4 53.6731 18.3269 68 36 68Z" fill="#FBFBFD"/>
<path fill-rule="evenodd" clip-rule="evenodd" d="M35.9273 71.9999L36 71.7636V68C18.3269 68 4 53.6731 4 36C4 25.3374 9.21496 15.8928 17.2334 10.0777L14.9032 6.82617C5.87357 13.3672 0 23.9977 0 36C0 55.858 16.0785 71.9607 35.9273 71.9999Z" fill="#CED1DD"/>
</svg>
