<svg width="72" height="72" viewBox="0 0 72 72" fill="none" xmlns="http://www.w3.org/2000/svg">
<circle cx="36" cy="36" r="28" fill="#6573FF"/>
<path d="M38.1832 24.5V46.3182H34.2308V28.3459H34.103L29 31.6058V27.9837L34.4226 24.5H38.1832Z" fill="white"/>
<path fill-rule="evenodd" clip-rule="evenodd" d="M36 72C55.8823 72 72 55.8823 72 36C72 16.1177 55.8823 0 36 0C16.1177 0 0 16.1177 0 36C0 55.8823 16.1177 72 36 72ZM36 68C53.6731 68 68 53.6731 68 36C68 18.3269 53.6731 4 36 4C18.3269 4 4 18.3269 4 36C4 53.6731 18.3269 68 36 68Z" fill="#EBECF7"/>
<path fill-rule="evenodd" clip-rule="evenodd" d="M35.9286 71.9999L36 71.5V68C21.769 68 9.70765 58.7104 5.54926 45.8643L1.74292 47.0974C6.41415 61.5277 19.9498 71.9689 35.9286 71.9999Z" fill="#EB5757"/>
</svg>
