<svg width="72" height="72" viewBox="0 0 72 72" fill="none" xmlns="http://www.w3.org/2000/svg">
<circle cx="36" cy="36" r="36" fill="#29DDCC"/>
<circle cx="36" cy="36" r="30" fill="#6573FF" stroke="white" stroke-width="4"/>
<path d="M36.032 47.2983C34.6115 47.2983 33.3402 47.032 32.218 46.4993C31.0959 45.9595 30.2045 45.2209 29.544 44.2834C28.8906 43.3459 28.5426 42.2734 28.5 41.0661H32.3352C32.4062 41.9609 32.7933 42.6925 33.4964 43.2607C34.1996 43.8217 35.0447 44.1023 36.032 44.1023C36.8061 44.1023 37.495 43.9247 38.0987 43.5696C38.7024 43.2145 39.1783 42.7209 39.5263 42.0888C39.8743 41.4567 40.0447 40.7358 40.0376 39.9261C40.0447 39.1023 39.8707 38.3707 39.5156 37.7315C39.1605 37.0923 38.674 36.5916 38.0561 36.2294C37.4382 35.8601 36.728 35.6754 35.9254 35.6754C35.272 35.6683 34.6293 35.7891 33.9972 36.0376C33.3651 36.2862 32.8643 36.6129 32.495 37.0178L28.9261 36.4318L30.0661 25.1818H42.7223V28.4844H33.3366L32.7081 34.2692H32.8359C33.2408 33.7933 33.8125 33.3992 34.5511 33.0867C35.2898 32.7671 36.0994 32.6073 36.9801 32.6073C38.3011 32.6073 39.4801 32.9198 40.517 33.5448C41.554 34.1626 42.3707 35.0149 42.9673 36.1016C43.5639 37.1882 43.8622 38.4311 43.8622 39.8303C43.8622 41.272 43.5284 42.5575 42.8608 43.6868C42.2003 44.809 41.2805 45.6932 40.1016 46.3395C38.9297 46.9787 37.5732 47.2983 36.032 47.2983Z" fill="white"/>
</svg>
