<svg width="72" height="72" viewBox="0 0 72 72" fill="none" xmlns="http://www.w3.org/2000/svg">
<circle cx="36" cy="36" r="28" fill="#6573FF"/>
<path fill-rule="evenodd" clip-rule="evenodd" d="M36 72C55.8823 72 72 55.8823 72 36C72 16.1177 55.8823 0 36 0C16.1177 0 0 16.1177 0 36C0 55.8823 16.1177 72 36 72ZM36 68C53.6731 68 68 53.6731 68 36C68 18.3269 53.6731 4 36 4C18.3269 4 4 18.3269 4 36C4 53.6731 18.3269 68 36 68Z" fill="#EBECF7"/>
<path d="M33.2727 40.4588V40.0966C33.2798 38.8537 33.3899 37.8629 33.603 37.1243C33.8232 36.3857 34.1428 35.7891 34.5618 35.3345C34.9808 34.88 35.4851 34.468 36.0746 34.0987C36.5149 33.8146 36.9091 33.5199 37.2571 33.2145C37.6051 32.9091 37.8821 32.5717 38.0881 32.2024C38.294 31.826 38.397 31.407 38.397 30.9453C38.397 30.4553 38.2798 30.0256 38.0455 29.6562C37.8111 29.2869 37.495 29.0028 37.0973 28.804C36.7067 28.6051 36.2734 28.5057 35.7976 28.5057C35.3359 28.5057 34.8991 28.6087 34.4872 28.8146C34.0753 29.0135 33.7379 29.3118 33.4751 29.7095C33.2124 30.1001 33.0703 30.5866 33.049 31.169H28.7024C28.7379 29.7486 29.0788 28.5767 29.7251 27.6534C30.3714 26.723 31.2273 26.0305 32.2926 25.576C33.358 25.1143 34.5334 24.8835 35.8189 24.8835C37.2322 24.8835 38.4822 25.1179 39.5689 25.5866C40.6555 26.0483 41.5078 26.7195 42.1257 27.6001C42.7436 28.4808 43.0526 29.5426 43.0526 30.7855C43.0526 31.6165 42.9141 32.3551 42.6371 33.0014C42.3672 33.6406 41.9872 34.2088 41.4972 34.706C41.0071 35.196 40.4283 35.6399 39.7607 36.0376C39.1996 36.3714 38.7379 36.7195 38.3757 37.0817C38.0206 37.4439 37.7543 37.8629 37.5767 38.3388C37.4063 38.8146 37.3175 39.4006 37.3104 40.0966V40.4588H33.2727ZM35.3821 47.277C34.6719 47.277 34.0646 47.0284 33.5604 46.5312C33.0632 46.027 32.8182 45.4233 32.8253 44.7202C32.8182 44.0241 33.0632 43.4276 33.5604 42.9304C34.0646 42.4332 34.6719 42.1847 35.3821 42.1847C36.0568 42.1847 36.6499 42.4332 37.1612 42.9304C37.6726 43.4276 37.9318 44.0241 37.9389 44.7202C37.9318 45.1889 37.8075 45.6186 37.5661 46.0092C37.3317 46.3928 37.0227 46.7017 36.6392 46.9361C36.2557 47.1634 35.8366 47.277 35.3821 47.277Z" fill="#2E39B3"/>
</svg>
