<svg width="73" height="72" viewBox="0 0 73 72" fill="none" xmlns="http://www.w3.org/2000/svg">
<circle cx="36" cy="36" r="28" fill="#CED1DD"/>
<path fill-rule="evenodd" clip-rule="evenodd" d="M36 72C55.8823 72 72 55.8823 72 36C72 16.1177 55.8823 0 36 0C16.1177 0 0 16.1177 0 36C0 55.8823 16.1177 72 36 72ZM36 68C53.6731 68 68 53.6731 68 36C68 18.3269 53.6731 4 36 4C18.3269 4 4 18.3269 4 36C4 53.6731 18.3269 68 36 68Z" fill="#FBFBFD"/>
<path fill-rule="evenodd" clip-rule="evenodd" d="M54.925 10.1934C49.6247 6.29987 43.0809 4 36 4C18.3269 4 4 18.3269 4 36C4 53.6731 18.3269 68 36 68V71.5002L35.889 71.9998C16.0578 71.94 0 55.8452 0 36C0 16.1177 16.1177 0 36 0C43.966 0 51.3277 2.58736 57.2906 6.96754L54.925 10.1934Z" fill="#CED1DD"/>
<path d="M36.0007 46.9148C34.4666 46.9148 33.103 46.652 31.9098 46.1264C30.7237 45.6009 29.7862 44.8693 29.0973 43.9318C28.4084 42.9943 28.0426 41.9112 28 40.6825H32.0057C32.0412 41.272 32.2365 41.7869 32.5916 42.2273C32.9467 42.6605 33.419 42.9979 34.0085 43.2393C34.598 43.4808 35.2585 43.6016 35.9901 43.6016C36.7713 43.6016 37.4638 43.4666 38.0675 43.1967C38.6712 42.9197 39.1435 42.5362 39.4844 42.0462C39.8253 41.5561 39.9922 40.9915 39.9851 40.3523C39.9922 39.6918 39.8217 39.1094 39.4737 38.6051C39.1257 38.1009 38.6214 37.7067 37.9609 37.4226C37.3075 37.1385 36.5192 36.9964 35.5959 36.9964H33.6676V33.9496H35.5959C36.3558 33.9496 37.0199 33.8182 37.5881 33.5554C38.1634 33.2926 38.6143 32.9233 38.9411 32.4474C39.2678 31.9645 39.4276 31.407 39.4205 30.7749C39.4276 30.157 39.2891 29.6207 39.005 29.1662C38.728 28.7045 38.3338 28.3459 37.8224 28.0902C37.3182 27.8345 36.7251 27.7067 36.0433 27.7067C35.3757 27.7067 34.7578 27.8274 34.1896 28.0689C33.6214 28.3104 33.1634 28.6548 32.8153 29.1023C32.4673 29.5426 32.2827 30.0682 32.2614 30.679H28.4581C28.4865 29.4574 28.8381 28.3849 29.5128 27.4616C30.1946 26.5313 31.1037 25.8068 32.2401 25.2884C33.3764 24.7628 34.6513 24.5 36.0646 24.5C37.5206 24.5 38.7848 24.7734 39.8572 25.3203C40.9368 25.8601 41.7713 26.5881 42.3608 27.5043C42.9503 28.4205 43.245 29.4325 43.245 30.5405C43.2521 31.7692 42.8899 32.799 42.1584 33.63C41.4339 34.4609 40.4822 35.0043 39.3033 35.2599V35.4304C40.8374 35.6435 42.0128 36.2116 42.8295 37.1349C43.6534 38.0511 44.0618 39.1911 44.0547 40.5547C44.0547 41.7763 43.7067 42.87 43.0107 43.8359C42.3217 44.7947 41.37 45.5476 40.1555 46.0945C38.9482 46.6413 37.5632 46.9148 36.0007 46.9148Z" fill="white"/>
</svg>
