<svg width="18" height="18" fill="none" xmlns="http://www.w3.org/2000/svg"><mask id="a" maskUnits="userSpaceOnUse" x=".391" y="0" width="10" height="9" fill="#000"><path fill="#fff" d="M.391 0h10v9h-10z"/><path fill-rule="evenodd" clip-rule="evenodd" d="M9.036 1H9a8.004 8.004 0 0 0-7.61 5.524L4.979 7.69A4.23 4.23 0 0 1 9.036 4.77v-3.77z"/></mask><path fill-rule="evenodd" clip-rule="evenodd" d="M9.036 1H9a8.004 8.004 0 0 0-7.61 5.524L4.979 7.69A4.23 4.23 0 0 1 9.036 4.77v-3.77z" fill="#29DDCC"/><path d="M9.036 1h.5V.502L9.038.5l-.002.5zM1.39 6.524l-.476-.155-.155.476.476.154.155-.475zM4.978 7.69l-.154.475.475.155.155-.475-.476-.155zM9.036 4.77l-.005.5.505.004v-.504h-.5zm.002-4.27L9 .5v1h.033l.005-1zM9 .5A8.504 8.504 0 0 0 .915 6.37l.951.308A7.504 7.504 0 0 1 9 1.5v-1zM5.133 7.214 1.545 6.048 1.236 7l3.588 1.166.309-.95zM9 4.271a4.73 4.73 0 0 0-4.497 3.264l.95.31A3.73 3.73 0 0 1 9 5.27v-1zm.04 0H9v1h.031l.009-1zm-.504-3.27v3.77h1v-3.77h-1z" fill="#FBFBFD" mask="url(#a)"/><mask id="b" maskUnits="userSpaceOnUse" x="10.516" y="5.465" width="7" height="11" fill="#000"><path fill="#fff" d="M10.516 5.465h7v11h-7z"/><path fill-rule="evenodd" clip-rule="evenodd" d="m16.59 6.465-3.587 1.168a4.223 4.223 0 0 1-1.487 4.767l2.219 3.05A7.989 7.989 0 0 0 17 9a7.99 7.99 0 0 0-.41-2.535z"/></mask><path fill-rule="evenodd" clip-rule="evenodd" d="m16.59 6.465-3.587 1.168a4.223 4.223 0 0 1-1.487 4.767l2.219 3.05A7.989 7.989 0 0 0 17 9a7.99 7.99 0 0 0-.41-2.535z" fill="#FF9839"/><path d="m16.59 6.465.474-.158-.157-.471-.471.154.154.475zm-3.587 1.168-.154-.476-.483.157.164.48.473-.161zM11.516 12.4l-.297-.402-.399.295.292.4.404-.293zm2.219 3.05-.404.293.295.407.405-.298-.296-.403zm2.7-9.46L12.85 7.157l.31.951 3.586-1.167-.31-.951zM13.73 9c0-.534-.088-1.049-.252-1.53l-.947.324c.13.378.2.783.2 1.206h1zm-1.915 3.801a4.723 4.723 0 0 0 1.915-3.8h-1a3.723 3.723 0 0 1-1.51 2.997l.595.803zm-.702-.107 2.219 3.05.808-.589-2.218-3.05-.809.589zm2.919 3.158A8.489 8.489 0 0 0 17.501 9h-1c0 2.48-1.205 4.68-3.062 6.046l.592.806zM17.501 9a8.49 8.49 0 0 0-.437-2.693l-.948.316c.25.747.384 1.546.384 2.377h1z" fill="#FBFBFD" mask="url(#b)"/><mask id="c" maskUnits="userSpaceOnUse" x="0" y="5.513" width="8" height="11" fill="#000"><path fill="#fff" d="M0 5.513h8v11H0z"/><path fill-rule="evenodd" clip-rule="evenodd" d="m4.293 15.47 2.219-3.05a4.223 4.223 0 0 1-1.53-4.74L1.393 6.513A7.994 7.994 0 0 0 1 9a7.99 7.99 0 0 0 3.293 6.47z"/></mask><path fill-rule="evenodd" clip-rule="evenodd" d="m4.293 15.47 2.219-3.05a4.223 4.223 0 0 1-1.53-4.74L1.393 6.513A7.994 7.994 0 0 0 1 9a7.99 7.99 0 0 0 3.293 6.47z" fill="#C4C4C4"/><path d="m6.512 12.42.404.294.294-.404-.404-.295-.294.404zm-2.219 3.05-.294.403.404.295.294-.404-.404-.295zm.688-7.79.475.156.157-.476-.477-.155-.155.475zM1.394 6.513l.155-.476-.475-.154-.155.474.475.156zm4.713 5.612-2.218 3.05.808.588 2.219-3.05-.809-.588zM4.271 9c0 1.572.768 2.964 1.946 3.823l.59-.808A3.723 3.723 0 0 1 5.27 9h-1zm.235-1.476A4.725 4.725 0 0 0 4.271 9h1c0-.407.065-.798.185-1.164l-.95-.312zM1.24 6.988l3.588 1.168.31-.951-3.588-1.168-.31.951zm-.32-.63A8.493 8.493 0 0 0 .5 9h1c0-.815.13-1.599.37-2.332l-.951-.31zM.5 9a8.49 8.49 0 0 0 3.499 6.873l.589-.808A7.49 7.49 0 0 1 1.5 9h-1z" fill="#FBFBFD" mask="url(#c)"/><mask id="d" maskUnits="userSpaceOnUse" x="7.973" y="0" width="10" height="9" fill="#000"><path fill="#fff" d="M7.973 0h10v9h-10z"/><path fill-rule="evenodd" clip-rule="evenodd" d="M16.61 6.526A8.004 8.004 0 0 0 8.973 1v3.771H9a4.23 4.23 0 0 1 4.023 2.921l3.587-1.166z"/></mask><path fill-rule="evenodd" clip-rule="evenodd" d="M16.61 6.526A8.004 8.004 0 0 0 8.973 1v3.771H9a4.23 4.23 0 0 1 4.023 2.921l3.587-1.166z" fill="#EB5757"/><path d="m16.61 6.526.155.476.475-.155-.154-.475-.476.154zM8.973 1 8.97.5l-.498.002V1h.5zm0 3.771h-.5v.503l.503-.003-.003-.5zm4.05 2.921-.475.155.154.475.476-.154-.155-.476zm4.063-1.32A8.504 8.504 0 0 0 9 .5v1a7.504 7.504 0 0 1 7.135 5.18l.95-.308zM9 .5h-.029l.004 1H9v-1zm-.527.5v3.771h1V1h-1zM9 4.271h-.03l.006 1H9v-1zM13.5 7.538A4.73 4.73 0 0 0 9 4.27v1a3.73 3.73 0 0 1 3.548 2.576l.95-.31zm-.321.63 3.587-1.166-.31-.951-3.586 1.166.309.95z" fill="#FBFBFD" mask="url(#d)"/><mask id="e" maskUnits="userSpaceOnUse" x="3.305" y="11.401" width="12" height="7" fill="#000"><path fill="#fff" d="M3.305 11.401h12v7h-12z"/><path fill-rule="evenodd" clip-rule="evenodd" d="M13.742 15.444A7.964 7.964 0 0 1 9.001 17a7.964 7.964 0 0 1-4.696-1.523L6.51 12.42c.699.51 1.56.81 2.49.81a4.21 4.21 0 0 0 2.514-.828l2.227 3.043z"/></mask><path fill-rule="evenodd" clip-rule="evenodd" d="M13.742 15.444A7.964 7.964 0 0 1 9.001 17a7.964 7.964 0 0 1-4.696-1.523L6.51 12.42c.699.51 1.56.81 2.49.81a4.21 4.21 0 0 0 2.514-.828l2.227 3.043z" fill="#FBC917"/><path d="m13.742 15.444.297.403.401-.296-.294-.402-.404.295zm-9.437.033-.406-.292-.291.404.403.293.294-.405zM6.51 12.42l.295-.404-.406-.297-.294.408.405.293zm5.004-.018.404-.296-.297-.405-.404.299.297.402zM9.002 17.5a8.465 8.465 0 0 0 5.038-1.653l-.593-.805A7.464 7.464 0 0 1 9 16.5v1zm-4.99-1.618A8.463 8.463 0 0 0 9 17.5v-1a7.464 7.464 0 0 1-4.402-1.427l-.588.809zm2.095-3.756-2.207 3.059.811.585 2.207-3.059-.811-.585zm.11.697a4.71 4.71 0 0 0 2.785.906v-1a3.71 3.71 0 0 1-2.195-.714l-.59.807zm2.785.906a4.71 4.71 0 0 0 2.812-.927L11.218 12a3.71 3.71 0 0 1-2.217.73v1zm5.145 1.42-2.227-3.044-.807.59 2.227 3.044.807-.59z" fill="#FBFBFD" mask="url(#e)"/><mask id="f" maskUnits="userSpaceOnUse" x="0" y="5.513" width="8" height="11" fill="#000"><path fill="#fff" d="M0 5.513h8v11H0z"/><path fill-rule="evenodd" clip-rule="evenodd" d="m4.293 15.47 2.219-3.05a4.223 4.223 0 0 1-1.53-4.74L1.393 6.513A7.994 7.994 0 0 0 1 9a7.99 7.99 0 0 0 3.293 6.47z"/></mask><path fill-rule="evenodd" clip-rule="evenodd" d="m4.293 15.47 2.219-3.05a4.223 4.223 0 0 1-1.53-4.74L1.393 6.513A7.994 7.994 0 0 0 1 9a7.99 7.99 0 0 0 3.293 6.47z" fill="#A3D411"/><path d="m6.512 12.42.404.294.294-.404-.404-.295-.294.404zm-2.219 3.05-.294.403.404.295.294-.404-.404-.295zm.688-7.79.475.156.157-.476-.477-.155-.155.475zM1.394 6.513l.155-.476-.475-.154-.155.474.475.156zm4.713 5.612-2.218 3.05.808.588 2.219-3.05-.809-.588zM4.271 9c0 1.572.768 2.964 1.946 3.823l.59-.808A3.723 3.723 0 0 1 5.27 9h-1zm.235-1.476A4.725 4.725 0 0 0 4.271 9h1c0-.407.065-.798.185-1.164l-.95-.312zM1.24 6.988l3.588 1.168.31-.951-3.588-1.168-.31.951zm-.32-.63A8.493 8.493 0 0 0 .5 9h1c0-.815.13-1.599.37-2.332l-.951-.31zM.5 9a8.49 8.49 0 0 0 3.499 6.873l.589-.808A7.49 7.49 0 0 1 1.5 9h-1z" fill="#FBFBFD" mask="url(#f)"/></svg>
