<svg width="16" height="16" viewBox="0 0 16 16" fill="none" xmlns="http://www.w3.org/2000/svg">
<path d="M8 0C6.14194 0 4.33548 0.670968 2.89032 1.85806V0.774194C2.89032 0.36129 2.58065 0 2.11613 0C1.65161 0 1.34194 0.36129 1.34194 0.774194V3.76774V3.81935C1.34194 3.87097 1.34194 3.87097 1.34194 3.92258V3.97419V4.02581C1.34194 4.02581 1.34194 4.07742 1.39355 4.07742C1.39355 4.07742 1.39355 4.12903 1.44516 4.12903L1.49677 4.18065C1.54839 4.28387 1.54839 4.28387 1.54839 4.33548L1.6 4.3871C1.6 4.3871 1.6 4.3871 1.65161 4.43871C1.70323 4.43871 1.70323 4.49032 1.75484 4.49032C1.75484 4.49032 1.80645 4.49032 1.80645 4.54194H1.85806H1.90968H1.96129C2.0129 4.54194 2.0129 4.54194 2.06452 4.54194H5.16129C5.57419 4.54194 5.93548 4.18064 5.93548 3.76774C5.93548 3.35484 5.57419 2.99355 5.16129 2.99355H3.92258C5.05806 2.06452 6.50323 1.54839 8 1.54839C11.5613 1.54839 14.4516 4.43871 14.4516 8C14.4516 11.5613 11.5613 14.4516 8 14.4516C4.43871 14.4516 1.54839 11.5613 1.54839 8C1.54839 7.5871 1.1871 7.22581 0.774194 7.22581C0.36129 7.22581 0 7.5871 0 8C0 12.3871 3.6129 16 8 16C12.3871 16 16 12.3871 16 8C16 3.6129 12.3871 0 8 0Z" fill="#6573FF"/>
</svg>
