<svg width="16" height="16" viewBox="0 0 16 16" fill="none" xmlns="http://www.w3.org/2000/svg">
<path d="M3.51804 5.62063C3.51804 3.93444 4.91695 2.52928 6.73554 2.52928C8.41423 2.52928 9.67325 3.79392 9.95303 5.33959C10.7924 5.33959 11.6317 5.33959 12.4711 5.33959C12.3312 2.38877 9.81314 0 6.73554 0C3.51804 0 1 2.52928 1 5.76114V5.90166C1.83935 5.76114 2.67869 5.62063 3.51804 5.62063Z" fill="#6573FF"/>
<path d="M11.2121 9.67678C11.7716 8.69317 12.1913 7.85008 12.3312 6.72595C11.4918 6.72595 10.6525 6.72595 9.81314 6.72595C9.39347 8.13111 8.13445 9.25523 6.73554 9.25523C5.33663 9.25523 4.2175 8.41214 3.79782 7.28801C2.95848 7.28801 2.11913 7.42853 1.13989 7.56905C1.83935 9.95781 4.07761 11.7845 6.59565 11.7845C7.43499 11.7845 8.27434 11.644 8.9738 11.2225L12.4711 15.5784C12.7509 15.8595 13.0306 16 13.4503 16C13.7301 16 14.0099 15.8595 14.2897 15.719C14.5694 15.4379 14.7093 15.1569 14.7093 14.8759C14.7093 14.5948 14.7093 14.1733 14.4296 13.8923L11.2121 9.67678Z" fill="#202945"/>
</svg>
