<svg width="144" height="188" fill="none" xmlns="http://www.w3.org/2000/svg"><path d="M143.241 51.758a51.758 51.758 0 1 0-85.62 39.146L28.74 178.986h113.488l-16.885-88.082a51.662 51.662 0 0 0 17.898-39.146z" fill="#202A44"/><g clip-path="url(#a)"><path d="M116.427 40.366c-.287-3.24-3.131-2.847-5.589-2.546-1.258.152-2.517.33-3.767.545-.981.166-2.139.258-3.154.574a1.97 1.97 0 0 0-1.434-.574c-1.049 0-2.294.992-2.15 2.15.086.691.175 1.38.261 2.07-.542 1.36-.376 2.968-.172 4.548.272 2.122.86 4.536 2.764 5.792 4.068 2.664 9.854-1.505 12.125-4.828 1.586-2.28 1.356-5.087 1.116-7.73z" fill="#fff"/><path d="M81.189 76.711a18.865 18.865 0 0 0-4.74-.106c-1.282.15-2.116.677-3.134 1.471v.04a3.115 3.115 0 0 0-1.064.287 1.058 1.058 0 0 0-.43.745h-.1c-.505.107-.99.294-1.434.557a.914.914 0 0 0-.355.92c.129.574.837.763 1.405.723.327-.022.649-.09.957-.201-.533.41-.573 1.456-.355 1.66a.984.984 0 0 0 .791.186c1.376-.111 2.317-.69 3.894-1.479.132-.066.255-.126.37-.178v.02c-.935 2.254-1.695 4.16-1.8 4.401v.072l-10.704-.401-4.126-10.443.06-.023c3.102-.573 6.52-1.51 9.14-3.297.156-.104.304-.217.445-.338 1.374-1.176 2.535-2.632 3.662-4.04 2.477-3.094 4.73-6.363 7.234-9.436a35.68 35.68 0 0 1 3.727-4.066 17.173 17.173 0 0 1 4.324-2.71c3.197-1.465 11.348-4.014 11.675-3.97.123 1.336.218 3.062 1.027 4.16a5.039 5.039 0 0 0 3.472 2.096c3.521.424 6.646-2.363 8.748-4.849 1.147-1.347 2.007-2.168 2.42-3.954 2.549 1.334 5.221 1.695 7.816 2.867 2.517 1.147 5.204 2.332 7.073 4.43 1.606 1.801 2.724 4.035 3.616 6.26a55.451 55.451 0 0 1 2.208 7.033 103.992 103.992 0 0 1 2.566 14.084c.126 1.112.241 2.225.364 3.334.14 1.305.364 2.627.301 3.943a4.354 4.354 0 0 1-1.371 3.12 5.954 5.954 0 0 1-2.686 1.272l-.089.02c-2.429.542-4.995.221-7.455.017a174.23 174.23 0 0 1-9.542-1.06l-2.798-.347h-.086c-8.737-1.293-17.103-2.655-25.76-4.439.055-.524.11-1.046.167-1.571.109-1.055.22-2.111.332-3.168.034-.44.112-.877.233-1.302h-.02c-1.64 0-3.937-.642-5.466-1.181a23.144 23.144 0 0 0-4.512-1.159zM113.86 175.327h-.08s-7.194.814-9.424-.27l-.104-.103c4.066-4.134.574-12.232.574-12.232-.221-2.052 2.38-5.519.287-4.773-2.911 1.032-5.216 3.498-5.216 3.498a20.197 20.197 0 0 0-8.888 1.608c-.463-.312-.941-.599-1.434-.86l.054-.1c1.265-2.334 4.542-6.862 11.928-9.732a35.613 35.613 0 0 1 6.632-1.835c2.063-.368 4.148-.6 6.242-.694 7.853-.378 14.488.37 19.641 3.874a18.241 18.241 0 0 1 6.431 7.868c2.735 6.666-.442 13.722-9.479 13.866h-.287s-15.408 1.599-16.877-.115z" fill="#F2F3FF"/><path d="M93.354 119.026c-2.024.043-4.06.074-6.081.097 0 0-8.046.519-16.676.422-3.581-.04-7.266-.186-10.514-.522-3.98-.407-7.312-1.095-9.015-2.213.058-.679.113-1.36.166-2.042h.02c11.37.499 21.175.608 32.555.691 3.154.023 13.275 0 16.14-1.282 3.108-1.402 4.126-3.076 5.513-5.516a.988.988 0 0 0 .628-.287c.297-.272.579-.559.846-.86a27.695 27.695 0 0 0 3.28-4.874 65.717 65.717 0 0 0 2.248-4.381c1.236-2.653 2.609-6.036 3.751-8.737v-.026h.086l2.798.347a185.8 185.8 0 0 0 9.542 1.061c2.449.204 5.015.525 7.455-.017v.046c-.553 3.498-5.993 1.72-9.674 2.638-3.682.917-3.518 9.327-3.518 9.327-.574 7.285-3.323 14.23-13.267 15.253-1.821.187-3.744.336-5.734.456-3.369.227-6.942.344-10.549.419z" fill="#fff"/><path d="M116.217 89.508v.026c-1.147 2.7-2.514 6.084-3.75 8.736a67.43 67.43 0 0 1-2.248 4.381 27.758 27.758 0 0 1-3.28 4.875c-.267.301-.549.588-.846.86a.987.987 0 0 1-.628.286 1.592 1.592 0 0 1-.456-.04c-1.319-.269-2.58-.998-3.756-1.628a65.508 65.508 0 0 1-5.883-3.668 152.78 152.78 0 0 1-4.536-3.199c-.33-.241-.66-.482-.992-.72a41.845 41.845 0 0 1-3.587-3.06c-1.402-1.281-2.638-2.735-4.069-3.99a23.706 23.706 0 0 0-6.34-3.966c5.853.252 12.19.487 13.27.359 2.088-.244 1.964-2.332 1.964-2.332l-15.873-.596v-.072c.107-.24.86-2.147 1.801-4.4v-.02c1.219-.574 1.603-.497 1.603-.497.42.022.833.119 1.218.287.594.218 1.182.45 1.76.708 1.542.72 3.156 1.272 4.815 1.646 1.03.212 3.194.35 4.23.034-.058.525-.113 1.047-.167 1.571 8.647 1.764 17.014 3.126 25.75 4.419z" fill="#F2F3FF"/><path d="M108.178 150.5v.043a35.536 35.536 0 0 0-6.632 1.835l-.069-.172c-2.466-10.517-5.27-22.279-8.132-33.18 3.607-.075 7.169-.192 10.552-.396 1.64 10.448 3.033 21.843 4.281 31.87z" fill="#fff"/><path d="M87.829 170.696c-.017-.028-.029-.057-.043-.086-2.053-4.384-.777-3.994-2.664-7.546-1.603-3.017 1.635-2.351 4.45-.86.493.261.971.548 1.434.86a20.184 20.184 0 0 1 8.888-1.609s2.294-2.466 5.216-3.498c2.101-.745-.499 2.721-.287 4.774 0 0 3.495 8.097-.574 12.232a6.827 6.827 0 0 1-2.202 1.476c-4.713 2.036-8.418.861-11.007-1.433a13.48 13.48 0 0 1-3.211-4.31z" fill="#F2F3FF"/><path d="M32.156 79.573c.083 0 .163 0 .247-.017 2.617-.13 5.2.43 7.741 1.124.63.169 1.256.35 1.881.527l23.34 6.687h.082c.677.034 5.36.27 10.397.49 2.31.978 4.45 2.317 6.34 3.965 1.433 1.256 2.666 2.71 4.068 3.992a41.826 41.826 0 0 0 3.587 3.059c.332.238.662.479.992.719a160.472 160.472 0 0 0 4.536 3.2 65.535 65.535 0 0 0 5.883 3.668c1.176.63 2.438 1.359 3.757 1.628.149.035.302.048.455.04-1.387 2.44-2.405 4.115-5.513 5.517-2.867 1.29-12.997 1.304-16.14 1.281-11.38-.083-21.186-.192-32.554-.691h-.02l-.167 2.042c-1.399 17.203-3.288 34.258-7.397 51.019-.144.588-.321 1.225-.809 1.583-.413.287-2.104.333-2.615.347-.51.014-.952.023-1.433.023a.038.038 0 0 0 0-.023v.023a57.244 57.244 0 0 1-13.944-1.646 2.927 2.927 0 0 1-1.433-.651c-.545-.55-.574-1.416-.574-2.193.02-3.647.052-8.203.07-11.85v-.026c2.643.418 4.613 1.023 7.81 1.112 2.244.063 4.527.121 6.692-.479 2.164-.599 4.515-1.866 5.118-4.014.04-.142.07-.288.086-.435.777-3.671.051-10.323-1.93-10.486l.24-1.97c-3.727-2.79-8.91-3.673-13.825-3.535a36.645 36.645 0 0 0-4.172.35l-.14-3.914-.15-38.203c0-2.7.02-5.554 1.405-7.873 1.638-2.75 4.898-4.175 8.089-4.39zM78.602 80.823c-.94-.074-3.208-.083-4.82-.37a3.822 3.822 0 0 1-1.508-.505 1.103 1.103 0 0 1-.413-.501.7.7 0 0 1-.034-.307 1.059 1.059 0 0 1 .43-.746 3.113 3.113 0 0 1 1.064-.286v-.04c1.018-.795 1.852-1.322 3.134-1.471a18.868 18.868 0 0 1 4.74.106c1.539.224 3.052.602 4.515 1.13 1.528.538 3.825 1.166 5.465 1.18h.02c-.12.426-.198.862-.232 1.302l-.333 3.169c-1.035.315-3.2.178-4.229-.035a23.636 23.636 0 0 1-4.814-1.645 26.803 26.803 0 0 0-1.76-.709 3.51 3.51 0 0 0-1.219-.286l-.006.014z" fill="#fff"/><path d="M75.844 88.387c-5.038-.221-9.72-.456-10.397-.49v-.067l-.952-2.414 10.704.402 15.873.596s.123 2.087-1.964 2.331c-1.076.13-7.412-.106-13.264-.358z" fill="#fff"/><path d="m91.043 175.026-.02.02c-2.437.261-6.523 1.078-7.455-1.637-.903-2.638 3.98-2.704 4.255-2.707a13.484 13.484 0 0 0 3.22 4.324z" fill="#F2F3FF"/><path d="M78.602 80.823s-.384-.072-1.603.496c-.114.052-.238.112-.37.178-1.577.788-2.517 1.368-3.893 1.48a.981.981 0 0 1-.792-.187c-.206-.204-.177-1.25.356-1.66.45-.158.88-.384 1.474-.608v-.069c1.62.287 3.888.296 4.828.37z" fill="#fff"/><path d="M73.782 80.453v.069c-.593.224-1.023.45-1.473.608-.309.11-.631.178-.958.2-.573.04-1.276-.134-1.405-.722a.915.915 0 0 1 .356-.92c.444-.263.928-.45 1.433-.557h.1a.7.7 0 0 0 .035.307c.084.205.228.38.413.502.458.274.97.449 1.5.513zM70.597 119.545v.057c-4.995 18.993-8.642 36.457-13.212 55.051l-4.588.103c2.58-18.737 4.26-36.313 7.289-55.713 3.245.33 6.93.462 10.51.502zM64.501 85.416l.952 2.415v.065h-.083L42.03 81.21c-.624-.178-1.25-.358-1.88-.527l.017-.06c.206-.462.419-.993.212-1.454a1.655 1.655 0 0 0-.657-.654 9.206 9.206 0 0 0-4.2-1.434 2.71 2.71 0 0 0-.834.026 2.146 2.146 0 0 0-.646.267l-.031-.043-7.168-18.064a1.3 1.3 0 0 1 1.11-1.775l23.172-1.769a2.159 2.159 0 0 1 2.17 1.345l7.077 17.92 4.129 10.428z" fill="#fff"/><path d="M40.715 139.099c1.98.172 2.706 6.816 1.93 10.486.246-1.987-1.959-2.581-1.959-2.581-10.468-2.202-8.705.514-21.04-3.154-6.678-2.007-16.432-1.146-19.21.944H.419c-.175-1.878.662-3.507 2.431-5.001 2.538-2.139 6.626-2.402 6.626-2.402 7-.247 9.855.094 12.851-.617 1.683-.401 3.426-.794 5.132-.516 1.322.215 5.554 2.867 13.164 2.867a.414.414 0 0 1 .092-.026z" fill="#F2F3FF"/><path d="M42.644 149.585a2.617 2.617 0 0 1-.086.436c-.602 2.162-2.953 3.44-5.118 4.014-2.164.573-4.447.542-6.692.479-3.197-.089-5.16-.694-7.81-1.113A32.386 32.386 0 0 0 18.16 153c-3.154-.043-6.308-.115-9.333-1.061-3.197-1.004-6.262-1.806-7.698-4.82a7.05 7.05 0 0 1-.7-2.365h.017c2.767-2.088 12.521-2.936 19.21-.944 12.33 3.682 10.572.967 21.04 3.154-.011.029 2.194.634 1.947 2.621zM40.944 137.124l-.24 1.97a.36.36 0 0 0-.081 0c-7.61 0-11.842-2.647-13.163-2.868l-.342-2.637c4.938-.138 10.099.745 13.826 3.535zM40.37 79.166c.207.461 0 .992-.212 1.453l-.017.06c-2.54-.693-5.124-1.252-7.741-1.123-.084 0-.164 0-.247.017l.163-.287a4.538 4.538 0 0 1 1.52-1.786l.198-.126c.199-.124.417-.214.645-.267.275-.052.557-.06.834-.026a9.205 9.205 0 0 1 4.2 1.434c.277.15.505.376.657.65z" fill="#fff"/><path d="M40.115 178.902c.095 1.302.13 2.744-.203 4.014-.16.623-.886.777-1.434.987-.493.191-.99.37-1.49.536-4.25 1.411-8.743 2.156-13.19 2.632a72.468 72.468 0 0 1-13.955.272c-1.789-.154-3.578-.335-5.25-1.009a2.65 2.65 0 0 1-1.72-2.133c-.14-1.178.662-2.294 1.434-3.111l.077-.075c1.39-1.777 2.721-2.204 4.014-2.259.159-.011.318-.011.476 0 1.035.017 2.056.192 3.08.029 1.705-.287 6.8-2.219 10.321-3.613 1.193-.545 2.515-1.571 3.49-2.099.006.006.01.013.014.02a.094.094 0 0 1 0 .029l.04.043c1.001.591 2.868 1.68 7.097 1.388 2.193-.152 3.492-.637 5.399-1.701a.152.152 0 0 0 .034-.017c.944 2.383 1.583 3.524 1.766 6.067z" fill="#F2F3FF"/><path d="M38.82 169.782a20.796 20.796 0 0 1-.514 3.039l.505-3.039h.008zM38.82 169.784v-.025a.04.04 0 0 1 0 .025z" fill="#fff"/><path d="M25.788 173.122s.017 0 0-.026l.484-2.744c0-.057.02-.112.032-.166.123-.662.232-1.265.287-1.626v-.029a57.31 57.31 0 0 0 12.208 1.251l-.504 3.039.017.031c-1.907 1.064-3.206 1.549-5.4 1.701-4.214.286-6.095-.797-7.095-1.388-.04-.032-.038-.034-.03-.043z" fill="#fff"/><path d="m26.321 170.186.287-1.626c-.066.361-.175.964-.287 1.626zM26.278 170.352l-.484 2.744c.071-.562.29-1.706.484-2.744zM25.79 173.093v.027a.087.087 0 0 0 0-.027z" fill="#fff"/><path d="M25.79 173.128c.118-.924.666-3.604.806-4.568l-.805 4.568z" fill="#fff"/><path d="M26.22 173.128c-.017.126 0-.101.018-.129l.034-.21c.029-.18.06-.361.092-.542.078-.433.16-.86.24-1.304.141-.754.288-1.508.408-2.268a.448.448 0 0 0-.287-.531.435.435 0 0 0-.527.301c-.235 1.569-.62 3.111-.823 4.683a.43.43 0 0 0 .43.43.442.442 0 0 0 .43-.43h-.014z" fill="#202A44"/><path d="M38.814 169.759c.054.06-.158 1.514-.505 3.062l.505-3.062z" fill="#fff"/><path d="M38.441 169.977a.35.35 0 0 1-.043-.141c-.023-.095 0-.049 0-.029v.066c0 .066 0 .132-.014.198-.015.066 0 .101-.02.149-.02.049 0 .083 0 .026v.049l-.06.39c-.11.676-.244 1.35-.394 2.021a.442.442 0 0 0 .287.531.439.439 0 0 0 .528-.301c.16-.714.3-1.434.416-2.154.037-.252.077-.507.1-.762a.731.731 0 0 0-.052-.476.443.443 0 0 0-.11-.127.431.431 0 0 0-.634.56h-.004zM133.332 153.533a.43.43 0 1 0 0-.858.43.43 0 0 0 0 .858zM132.26 81.408c-4.227-4.788-10.968-5.637-16.992-5.505-3.552.08-7.102.321-10.651.502-3.55.18-7.123.315-10.68.539-.746.048-1.543.143-2.174.573a2.811 2.811 0 0 0-1.104 1.858c-.17.86-.215 1.743-.304 2.61l-.324 3.082a.427.427 0 0 0 .315.413c7.515 1.548 15.082 2.826 22.669 3.976 5.823.883 11.675 1.594 17.544 2.062 1.812.146 3.65.212 5.448-.152 1.54-.316 3.074-.992 3.934-2.371.894-1.434.8-3.172.622-4.78-.204-1.87-.407-3.742-.628-5.611a105.525 105.525 0 0 0-1.912-11.182c-.835-3.659-1.812-7.315-3.341-10.752a20.868 20.868 0 0 0-2.58-4.436 13.231 13.231 0 0 0-3.627-3.14 36.09 36.09 0 0 0-4.387-2.173c-1.643-.705-3.375-1.147-5.064-1.72a18.412 18.412 0 0 1-2.477-1.033.436.436 0 0 0-.634.256 7.31 7.31 0 0 1-1.7 3.053 30.26 30.26 0 0 1-2.529 2.727c-1.789 1.637-4.235 3.154-6.772 2.664a4.62 4.62 0 0 1-2.982-2.03c-.657-1.047-.717-2.389-.823-3.584-.06-.668-.47-.637-.975-.508-.573.146-1.13.318-1.689.487a133.684 133.684 0 0 0-5.373 1.772 42.701 42.701 0 0 0-5.25 2.128 16.392 16.392 0 0 0-3.475 2.325c-1.087 1-2.099 2.08-3.028 3.229-1.98 2.377-3.804 4.874-5.662 7.343a131.066 131.066 0 0 1-2.799 3.598 25.14 25.14 0 0 1-3.016 3.277c-1.024.892-2.354 1.508-3.604 2.007a27.75 27.75 0 0 1-3.957 1.21c-.645.152-1.293.287-1.944.405-.542.1-.312.929.23.828 2.715-.504 5.447-1.221 7.89-2.526a12.53 12.53 0 0 0 3.326-2.617c1.024-1.104 1.956-2.294 2.882-3.481 1.94-2.483 3.767-5.052 5.717-7.527 1.844-2.342 3.765-4.82 6.308-6.44 1.772-1.127 3.727-1.89 5.688-2.6a132.839 132.839 0 0 1 5.611-1.89c.669-.209 1.337-.416 2.008-.602a12.896 12.896 0 0 1 .653-.166c.095-.023-.023 0-.034 0a3.63 3.63 0 0 0-.381-.313 2.1 2.1 0 0 0 .045.525c.112 1.216.247 2.549.932 3.601a5.61 5.61 0 0 0 2.827 2.205c2.458.846 5.098-.235 7.057-1.72a19.058 19.058 0 0 0 2.767-2.61c.777-.883 1.628-1.774 2.204-2.806.3-.54.525-1.12.669-1.72l-.631.257c1.554.803 3.225 1.296 4.891 1.81a35.325 35.325 0 0 1 4.682 1.858c1.43.634 2.778 1.44 4.014 2.4a13.62 13.62 0 0 1 3.083 3.798c1.777 3.094 2.838 6.578 3.727 10.016a102.916 102.916 0 0 1 2.185 10.86c.269 1.839.473 3.682.674 5.526.189 1.783.573 3.633.441 5.43a3.952 3.952 0 0 1-2.471 3.458c-1.594.683-3.421.749-5.13.686-1.812-.07-3.627-.264-5.447-.436a173.772 173.772 0 0 1-5.632-.625c-1.935-.244-3.873-.473-5.8-.76-7.355-1.095-14.695-2.294-21.992-3.727a310.46 310.46 0 0 0-2.764-.56l.316.416c.172-1.66.324-3.323.522-4.977.074-.614.192-1.325.685-1.752.493-.427 1.213-.496 1.838-.536 3.372-.213 6.749-.342 10.124-.51 3.375-.17 6.746-.38 10.121-.5 3.2-.111 6.451-.077 9.574.709 2.988.748 5.835 2.179 7.896 4.513.367.415.972-.193.608-.608l.012-.006z" fill="#202A44"/><path d="M75.724 88.797a22.13 22.13 0 0 1 4.773 2.744c1.517 1.12 2.805 2.474 4.124 3.813a44.61 44.61 0 0 0 4.378 3.948c1.62 1.262 3.32 2.437 5.009 3.607 1.646 1.147 3.306 2.268 5.02 3.306.84.508 1.698.981 2.564 1.448.836.479 1.715.878 2.626 1.193.384.141.787.22 1.196.235a1.605 1.605 0 0 0 1.081-.502 15.12 15.12 0 0 0 1.875-2.182 39.88 39.88 0 0 0 3.005-4.98c1.987-3.756 3.555-7.719 5.209-11.627a.445.445 0 0 0-.154-.59.437.437 0 0 0-.588.155c-1.434 3.366-2.781 6.769-4.401 10.035a55.826 55.826 0 0 1-2.825 5.103c-.497.8-1.046 1.566-1.643 2.294-.309.377-.639.736-.989 1.075a.877.877 0 0 1-.447.301.878.878 0 0 1-.539-.014 10.648 10.648 0 0 1-2.581-1.043 59.952 59.952 0 0 1-2.494-1.382c-1.72-1.018-3.383-2.137-5.032-3.269-1.649-1.133-3.237-2.294-4.84-3.44a38.81 38.81 0 0 1-4.361-3.814c-1.488-1.474-2.89-3.008-4.57-4.272a22.823 22.823 0 0 0-5.161-2.977c-.514-.206-.737.626-.227.829l-.008.006zM73.63 78.371c.832-.645 1.72-1.186 2.773-1.336a16.375 16.375 0 0 1 3.856 0c1.293.129 2.572.376 3.82.737 1.106.319 2.179.737 3.288 1.05 1.21.371 2.463.585 3.728.636.553 0 .553-.86 0-.86-2.389-.04-4.588-1.032-6.839-1.672-2.531-.716-5.281-1.072-7.902-.73-1.284.169-2.314.802-3.32 1.582-.436.338.175.943.608.608l-.012-.014zM90.352 83.108c-.611.148-1.242.2-1.87.155a11.93 11.93 0 0 1-1.86-.192 22.728 22.728 0 0 1-4.823-1.623 17.318 17.318 0 0 0-2.4-.932 2.634 2.634 0 0 0-1.086-.097c-1.256.189-2.397.995-3.524 1.525a5.449 5.449 0 0 1-2.21.614c-.348 0-.342-.023-.32-.356a1.073 1.073 0 0 1 .345-.763c.421-.358-.19-.963-.608-.607a1.97 1.97 0 0 0-.573 1.691c.089.78.808.95 1.49.86 1.7-.189 3.069-1.19 4.611-1.832a5.41 5.41 0 0 1 .734-.255c.075-.017.152-.037.227-.049.12-.02-.086.02 0 0a.443.443 0 0 1 .063 0s.26-.025-.06 0c.21 0 .42.03.622.086.461.135.914.298 1.356.488 1.763.694 3.44 1.502 5.304 1.947.786.187 1.588.303 2.394.347a7.29 7.29 0 0 0 2.418-.172.43.43 0 0 0-.23-.83v-.005z" fill="#202A44"/><path d="M51.346 115.201c4.779.21 9.57.365 14.374.465 4.716.1 9.436.154 14.152.195 3.129.028 6.254.065 9.379 0 3.01-.081 6.09-.167 9.055-.749a9.89 9.89 0 0 0 3.696-1.557 11.091 11.091 0 0 0 3.199-3.567c.218-.361.428-.728.634-1.092a.428.428 0 0 0 .045-.326.428.428 0 0 0-.525-.309.436.436 0 0 0-.263.199c-.777 1.371-1.576 2.736-2.781 3.779a8.737 8.737 0 0 1-3.696 1.927c-1.276.278-2.57.462-3.873.55-1.572.135-3.154.21-4.728.261-2.94.095-5.878.072-8.817.049-4.654-.037-9.304-.086-13.955-.175-4.65-.089-9.373-.226-14.05-.418l-1.84-.078c-.553-.023-.553.837 0 .86l-.006-.014zM103.487 118.722c1.296 8.315 2.374 16.661 3.42 25.011l.841 6.767c.068.541.929.55.86 0-1.038-8.347-2.065-16.699-3.252-25.026-.332-2.33-.679-4.657-1.041-6.981-.083-.545-.911-.313-.828.229zM101.901 152.091c-2.027-8.648-4.083-17.287-6.259-25.897a703.149 703.149 0 0 0-1.884-7.323.427.427 0 0 0-.525-.287.43.43 0 0 0-.303.517c2.276 8.667 4.395 17.375 6.463 26.091a683.004 683.004 0 0 1 1.68 7.125c.126.539.954.31.828-.229v.003zM59.661 119.109c-1.147 7.312-2.133 14.646-3.065 21.986-.9 7.119-1.743 14.247-2.632 21.367-.506 4.06-1.035 8.117-1.585 12.171a.44.44 0 0 0 .227.496c.058.03.123.047.188.049l4.588-.103a.437.437 0 0 0 .416-.316c1.749-7.111 3.403-14.244 5.052-21.378 1.648-7.134 3.28-14.196 5.009-21.272 1.003-4.1 2.038-8.191 3.105-12.272a.429.429 0 0 0-.829-.226c-1.89 7.194-3.65 14.425-5.353 21.668-1.66 7.059-3.271 14.129-4.926 21.191-.942 4.026-1.905 8.046-2.887 12.06l.413-.316-4.588.104.416.544c.98-7.168 1.86-14.336 2.735-21.504.875-7.168 1.75-14.356 2.727-21.504.574-4.169 1.18-8.333 1.82-12.493.084-.539-.745-.774-.83-.226v-.026z" fill="#202A44"/><path d="M50.98 117.222a10.32 10.32 0 0 0 2.895 1.199c1.326.356 2.673.622 4.034.797 3.39.439 6.802.685 10.22.737 3.457.086 6.915.063 10.373-.026 2.414-.061 4.828-.157 7.242-.287 2.807-.152 5.617-.14 8.427-.206 3.065-.069 6.133-.172 9.193-.347 2.709-.155 5.493-.249 8.163-.76a14.563 14.563 0 0 0 5.857-2.42 12.667 12.667 0 0 0 3.593-4.068 18.093 18.093 0 0 0 1.858-5.204c.298-1.337.467-2.7.507-4.069.01-1.196.114-2.39.313-3.57.246-1.433.622-3.07 1.62-4.183a2.889 2.889 0 0 1 1.76-.915c.994-.152 2-.217 3.005-.195.994.023 1.988-.005 2.979-.083.797-.08 1.64-.23 2.317-.682a2.766 2.766 0 0 0 1.184-1.872c.092-.542-.737-.775-.828-.23-.307 1.766-2.159 1.936-3.65 1.987-1.922.069-4.015-.2-5.893.399-1.41.456-2.213 1.818-2.701 3.13a16.944 16.944 0 0 0-.883 4.479c-.068.829-.043 1.661-.117 2.486a24.066 24.066 0 0 1-1.078 5.491 13.668 13.668 0 0 1-2.552 4.631 11.807 11.807 0 0 1-4.611 3.228c-2.311.912-4.768 1.115-7.222 1.313-2.913.233-5.832.376-8.75.479-3.106.109-6.211.166-9.317.209-.765 0-1.525.018-2.293.061a231.334 231.334 0 0 1-15.77.421c-3.467-.031-6.942-.143-10.397-.482-2.64-.258-5.447-.573-7.916-1.588a6.97 6.97 0 0 1-1.147-.591c-.465-.301-.897.442-.433.743l.017-.012zM76.592 81.239c-.401.975-.8 1.95-1.198 2.927l-.39.966-.126.307c0 .04-.032.078-.05.118-.04.097.035-.075 0-.017a.444.444 0 0 0 .156.573.433.433 0 0 0 .587-.155c.643-1.488 1.222-3.007 1.844-4.507a.433.433 0 0 0-.301-.528.444.444 0 0 0-.53.287l.008.029zM83.666 63.9a66.48 66.48 0 0 1-1.325 3.235c-.784 1.875-1.567 3.75-2.351 5.622-.485 1.165-.972 2.332-1.454 3.501-.21.51.622.734.832.23 1.505-3.659 3.056-7.297 4.564-10.956.192-.464.387-.932.574-1.405.192-.519-.64-.742-.832-.226h-.008zM45.818 99.34c7.515-.25 14.95-1.489 22.428-2.17 2.073-.19 4.149-.34 6.23-.408.55-.017.554-.877 0-.86-7.515.25-14.952 1.488-22.43 2.173-2.073.19-4.149.336-6.228.404-.553.02-.556.88 0 .86z" fill="#202A44"/><path d="M22.505 153.441c-.015 2.908-.032 5.815-.049 8.722v2.082c-.03.655-.019 1.311.032 1.964.035.625.3 1.215.742 1.657.5.447 1.173.597 1.807.749a58.433 58.433 0 0 0 14.393 1.594 15.83 15.83 0 0 0 3.082-.212c1.268-.287 1.491-1.658 1.752-2.733.383-1.583.747-3.17 1.093-4.762a233.015 233.015 0 0 0 1.85-9.505c1.109-6.368 1.977-12.779 2.697-19.211.72-6.431 1.285-12.868 1.795-19.31.063-.792.126-1.58.186-2.372.043-.55-.817-.547-.86 0-.481 6.242-1.006 12.479-1.66 18.703-.654 6.225-1.434 12.418-2.423 18.589-.989 6.17-2.17 12.306-3.684 18.35-.11.433-.244 1.098-.68 1.322-.372.189-.926.175-1.333.2-1.247.081-2.506.081-3.756.058a56.895 56.895 0 0 1-11.538-1.402c-.636-.144-1.402-.233-1.96-.588-.56-.356-.64-.992-.663-1.58-.023-.588 0-1.262 0-1.89l.051-8.495v-1.95a.43.43 0 0 0-.86 0l-.014.02z" fill="#202A44"/><path d="M.711 145.066a7.166 7.166 0 0 1 2.265-1.026 21.32 21.32 0 0 1 3.366-.677 36.372 36.372 0 0 1 8.427-.052c1.376.144 2.74.39 4.08.737 1.546.407 3.068.892 4.622 1.276 1.99.517 4.02.857 6.07 1.015 1.457.092 2.919.055 4.378.129a34.25 34.25 0 0 1 2.804.258c.591.081 1.179.175 1.764.287.69.12 1.41.215 2.087.404.139.036.273.089.399.158.325.149.618.361.86.625.748.86.33 2.073-.258 2.893-.777 1.084-2.044 1.783-3.269 2.236a14.92 14.92 0 0 1-4.92.809 37.302 37.302 0 0 1-4.774-.178c-1.213-.132-2.408-.37-3.607-.599-1.247-.241-2.503-.459-3.767-.594-1.698-.177-3.398-.163-5.101-.215a31.298 31.298 0 0 1-5.299-.521 32.792 32.792 0 0 1-4.438-1.305c-1.233-.442-2.478-.989-3.461-1.875a6.567 6.567 0 0 1-1.978-3.492c-.605-2.759 1.413-5.095 3.75-6.265a12.864 12.864 0 0 1 5.27-1.308c2.71-.086 5.422-.057 8.134-.132.88-.025 1.764-.068 2.638-.18 1.17-.149 2.294-.471 3.44-.686 1.148-.215 2.486-.39 3.63 0 .617.21 1.213.471 1.818.703a30.014 30.014 0 0 0 6.687 1.752c.782.109 1.565.189 2.354.235.404.026.808.043 1.215.052h.843a.506.506 0 0 1 .253.126c-.043-.032.086.077.109.1.023.023.112.12.135.149.21.293.379.614.498.955.757 2.007.86 4.335.752 6.46-.034.97-.184 1.933-.448 2.867-.163.533.668.76.829.229.654-2.153.622-4.587.353-6.812a12.548 12.548 0 0 0-.703-3.094c-.287-.688-.668-1.477-1.402-1.76a1.42 1.42 0 0 0-.45-.095c-.447-.026-.903 0-1.353-.026a28.249 28.249 0 0 1-6.535-1.018 33.88 33.88 0 0 1-2.965-.995c-.613-.235-1.218-.507-1.843-.708-1.265-.404-2.73-.201-4.014.035-1.147.212-2.254.542-3.407.676-2.199.255-4.432.184-6.64.207-2.208.023-4.453-.052-6.626.444-2.647.608-5.33 1.976-6.664 4.459-1.333 2.483-.407 5.769 1.623 7.649a10.514 10.514 0 0 0 3.521 2.007 32.873 32.873 0 0 0 4.499 1.38c1.794.366 3.617.57 5.447.61 1.784.063 3.567.035 5.342.21 2.604.261 5.135.966 7.742 1.233 1.678.162 3.364.21 5.049.143a14.762 14.762 0 0 0 4.966-.941c1.319-.527 2.58-1.284 3.44-2.44.726-.98 1.148-2.362.545-3.5a3.328 3.328 0 0 0-1.815-1.457 7.257 7.257 0 0 0-1.146-.255 56.047 56.047 0 0 0-2.03-.359 40.087 40.087 0 0 0-5.643-.473 35.112 35.112 0 0 1-4.763-.304c-2.81-.421-5.502-1.27-8.237-2.007a32.812 32.812 0 0 0-8.825-1.003c-2.581.026-5.265.249-7.742 1.012a7.708 7.708 0 0 0-2.325 1.069c-.44.327 0 1.076.435.743l.009.02z" fill="#202A44"/><path d="m27.904 136.232-.287-2.222-.043-.318a.442.442 0 0 0-.43-.43c-.206 0-.462.192-.43.43l.287 2.225.043.315a.438.438 0 0 0 .43.43c.206 0 .461-.192.43-.43zM40.531 137.089l-.215 1.755-.032.25a.433.433 0 0 0 .43.43.442.442 0 0 0 .43-.43l.216-1.755.031-.25a.43.43 0 0 0-.43-.43.443.443 0 0 0-.43.43zM27.956 57.048a1.75 1.75 0 0 0-1.514 2.345c.097.264.206.525.31.786l1.59 4.014 4.224 10.66 1.026 2.581c.201.51 1.033.287.83-.23l-2.627-6.631-3.911-9.87-.534-1.347c-.028-.074-.06-.146-.088-.224a.89.89 0 0 1 .694-1.235c.544-.06.55-.92 0-.86v.011z" fill="#202A44"/><path d="M40.531 80.835c.235-.52.468-1.09.301-1.666-.146-.508-.573-.826-1.003-1.096a9.564 9.564 0 0 0-3.272-1.281 5.94 5.94 0 0 0-1.697-.144 2.867 2.867 0 0 0-1.462.648c-.732.574-1.165 1.28-1.615 2.062a.43.43 0 1 0 .743.436 6.308 6.308 0 0 1 1.092-1.566c.3-.304.664-.537 1.067-.68a3.372 3.372 0 0 1 1.396.03 8.799 8.799 0 0 1 2.61.842c.395.177.765.405 1.1.68.399.367.19.877 0 1.302-.223.501.52.937.743.433h-.003z" fill="#202A44"/><path d="m64.602 85.846 2.64.098 6.308.238 7.659.287 6.594.249 2.197.083c.342.037.687.05 1.032.037h.046l-.43-.43c.025.333-.04.666-.19.964a1.68 1.68 0 0 1-1.433.946c-.669.043-1.339.05-2.008.02-2.62-.037-5.244-.143-7.864-.25-2.961-.12-5.924-.25-8.889-.392-1.072-.049-2.147-.1-3.22-.155-.53-.026-1.09 0-1.614-.08-.037 0-.069-.023-.097-.026-.691-.132-1.382-.399-2.059-.59l-4.258-1.222-8.51-2.437L42 80.748c-2.71-.776-5.465-1.545-8.298-1.637a12.942 12.942 0 0 0-6.66 1.465 8.705 8.705 0 0 0-4.17 4.995c-.785 2.463-.644 5.13-.633 7.676l.035 8.871.069 17.599c.017 4.344-.02 8.688.137 13.026l.043 1.19a.441.441 0 0 0 .545.415c4.73-.662 9.837-.55 14.316 1.262a15.315 15.315 0 0 1 3.44 1.938.425.425 0 0 0 .631-.258l2.58-18.316c.861-6.052 1.807-12.114 2.126-18.227.202-3.43.118-6.87-.25-10.287-.06-.542-.923-.55-.86 0 .694 6.055.264 12.16-.47 18.189-.734 6.03-1.658 12.109-2.51 18.159l-1.433 10.256.634-.258c-4.014-3.014-9.324-3.799-14.213-3.653a38.815 38.815 0 0 0-4.198.364l.545.416-.12-3.329c-.078-2.174-.038-4.353-.043-6.523l-.069-17.671-.037-8.871-.017-4.436c0-1.321-.032-2.649.045-3.97.138-2.383.72-4.763 2.49-6.472 1.565-1.511 3.727-2.348 5.865-2.606 2.742-.33 5.497.226 8.138.926 2.827.75 5.634 1.597 8.447 2.405l16.954 4.857c.442.093.893.135 1.344.127l2.813.134c2.867.138 5.734.268 8.602.39 2.76.115 5.525.227 8.292.287.84.02 1.683.04 2.523.017 1.201-.034 2.276-.51 2.71-1.72.126-.346.185-.713.171-1.081a.44.44 0 0 0-.43-.43l-2.638-.1-6.307-.239-7.659-.286-6.594-.25c-1.07-.04-2.16-.143-3.229-.123h-.049c-.553-.02-.55.84 0 .86l-.005.017zM79.531 77.666a20.015 20.015 0 0 0-4.794-.14c-.522.048-1.046.109-1.563.183-.447.066-.946.13-1.296.445a1.351 1.351 0 0 0-.344 1.611c.259.414.66.72 1.127.86.892.33 1.895.396 2.833.465 1.01.074 2.022.077 3.028.154.553.046.55-.817 0-.86-1.583-.123-3.183-.063-4.751-.358-.45-.086-1.981-.396-1.385-1.147.21-.26.665-.287.972-.318.413-.063.829-.106 1.242-.147a18.98 18.98 0 0 1 4.702.098c.542.077.774-.751.23-.832v-.014z" fill="#202A44"/><path d="M71.727 78.701c-.463.074-.91.22-1.325.436-.27.113-.505.295-.683.528a1.34 1.34 0 0 0-.229.811c.075 1.29 1.597 1.416 2.58 1.176.624-.2 1.235-.44 1.83-.714a.442.442 0 0 0 .3-.53.433.433 0 0 0-.527-.287c-.573.218-1.127.516-1.72.682a2.8 2.8 0 0 1-.786.115 1.19 1.19 0 0 1-.27-.026 1.162 1.162 0 0 1-.286-.086 1.059 1.059 0 0 1-.135-.083c.043.034-.066-.07-.074-.084.049.07-.043-.094-.026-.051.017.043-.032-.13-.023-.075a.476.476 0 0 1 .2-.47c.321-.18.662-.322 1.016-.421l.146-.04c.034 0 .172-.03.014 0a.441.441 0 0 0 .43-.43.432.432 0 0 0-.43-.43l-.002-.02zM121.777 66.043l-1.867 8.965-.261 1.259c-.111.542.717.771.829.23l1.867-8.966.261-1.26c.111-.541-.717-.77-.829-.228zM101.078 47.222c-.218-2.133.018-4.3-.361-6.428-.094-.545-.926-.313-.829.229.365 2.036.121 4.146.33 6.199.055.545.915.55.86 0zM115.799 38.933a33.002 33.002 0 0 0 0 3.329c.093.76.12 1.528.08 2.293a.432.432 0 0 0 .43.43.438.438 0 0 0 .43-.43c.04-.765.013-1.532-.08-2.293a33.002 33.002 0 0 1 0-3.33c.023-.556-.837-.553-.86 0zM53.012 55.924a2.913 2.913 0 0 0-2.17-.625l-1.434.109-5.382.413-13.02.995-3.062.232c-.548.043-.553.903 0 .86l8.172-.625 12.615-.963 1.884-.144c.637-.049 1.239-.089 1.784.356.424.35 1.038-.255.608-.608h.005z" fill="#202A44"/><path d="m65.869 87.716-1.245-3.154-2.979-7.538-3.555-9.009-3.028-7.664c-.45-1.147-.883-2.277-1.344-3.406a2.77 2.77 0 0 0-.706-1.021c-.407-.373-1.018.235-.608.608.41.373.554.823.752 1.319l.86 2.159 2.887 7.311 3.541 8.966 3.08 7.796c.501 1.27.994 2.543 1.505 3.808l.02.054c.2.508 1.032.287.828-.23h-.008zM4.616 181.4c.327-.324.594-.703.938-1.018.282-.262.594-.489.929-.677a4.257 4.257 0 0 1 1.766-.505c.963-.063 1.921.101 2.882.084a7.302 7.302 0 0 0 1.78-.273c2.827-.757 5.574-1.889 8.295-2.953a15.006 15.006 0 0 0 2.414-1.121c.797-.485 1.554-1.041 2.374-1.491l-.587-.155.02.037.069-.521a.525.525 0 0 0-.124.212.446.446 0 0 0 .195.487 8.723 8.723 0 0 0 3.28 1.282c2.128.412 4.32.357 6.426-.161a14.067 14.067 0 0 0 3.303-1.433l-.634-.255c.528 1.33 1.147 2.643 1.465 4.042.37 1.611.461 3.273.267 4.915a2.83 2.83 0 0 1-.232 1.038 1.332 1.332 0 0 1-.706.415c-.745.273-1.488.551-2.245.795-1.706.545-3.44.997-5.195 1.356a81.636 81.636 0 0 1-10.72 1.433 69.334 69.334 0 0 1-11.051-.048 24.93 24.93 0 0 1-2.867-.387c-.835-.175-1.795-.379-2.495-.892a2.1 2.1 0 0 1-.86-1.93c.109-.889.717-1.654 1.316-2.294.381-.398-.226-1.009-.608-.607-1.12 1.169-2.067 2.792-1.284 4.407.72 1.485 2.543 1.918 4.014 2.199 1.887.318 3.795.501 5.709.547 2.007.084 4.014.069 6-.023a86.441 86.441 0 0 0 11.659-1.307 54.423 54.423 0 0 0 5.565-1.31c.9-.264 1.792-.557 2.67-.886.599-.23 1.344-.39 1.751-.929.224-.367.354-.782.379-1.21.076-.516.118-1.036.126-1.557a18.358 18.358 0 0 0-.198-3.045c-.26-1.743-.998-3.332-1.637-4.958a.442.442 0 0 0-.634-.258c-.868.512-1.79.927-2.75 1.239-1.02.284-2.072.438-3.13.459-1.67.06-3.39-.075-4.95-.714a7.002 7.002 0 0 1-1.307-.683l.198.485-.097.166a.447.447 0 0 0 .066-.522l-.02-.037a.442.442 0 0 0-.591-.152c-.731.402-1.41.889-2.116 1.333-.688.428-1.414.788-2.17 1.076a184.55 184.55 0 0 1-4.588 1.743c-1.276.464-2.56.929-3.87 1.29a6.702 6.702 0 0 1-1.687.287c-.96.017-1.918-.146-2.881-.083a5.281 5.281 0 0 0-2.116.573 5.761 5.761 0 0 0-1.015.706c-.416.352-.726.791-1.11 1.169-.384.379.224 1.01.62.62zM90 162.327a19.17 19.17 0 0 1 5.516-6.182c4.146-3.068 9.175-4.688 14.244-5.428a56.14 56.14 0 0 1 10.747-.467c3.214.155 6.445.639 9.462 1.806a17.968 17.968 0 0 1 9.808 8.946c1.053 2.217 1.569 4.763 1.038 7.191a8.159 8.159 0 0 1-3.773 5.293 10.79 10.79 0 0 1-3.696 1.328c-.912.163-1.818.143-2.732.218-.995.083-1.987.186-2.982.263-3.504.287-7.059.545-10.575.342a12.756 12.756 0 0 1-1.878-.218 4.672 4.672 0 0 1-.699-.195c-.037-.015.066.037-.046-.02l-.109-.058-.103-.066c.074.052.026.02-.029-.031-.054-.052 0 .014 0 0l-.02-.038c-.052 0 .092-.206.02.052.04-.14-.109.066 0 .02 0 0 0-.175 0 0a.355.355 0 0 1 .029-.106c-.043.095-.026.043 0 0l.066-.097c-.081.111.031-.035.054-.058a1.86 1.86 0 0 1 .545-.407c.247-.137.51-.244.783-.318 1.603-.499 3.343-.548 5.006-.605 2.13-.072 4.258-.057 6.388-.118a33.329 33.329 0 0 0 5.947-.556c1.39-.287 2.959-.786 3.825-2.007.357-.516.546-1.13.542-1.758a.433.433 0 0 0-.431-.43.433.433 0 0 0-.43.43 2.174 2.174 0 0 1-.573 1.486 4.15 4.15 0 0 1-1.62 1c-1.72.642-3.627.789-5.448.889-2.19.121-4.384.112-6.574.149-1.921.035-3.871.066-5.766.41-1.058.195-2.601.554-3.114 1.634-.513 1.081.909 1.506 1.674 1.649 1.586.245 3.191.335 4.794.27a102.67 102.67 0 0 0 5.709-.244c1.422-.094 2.842-.207 4.261-.341 1.534-.141 3.068-.126 4.587-.502 2.44-.608 4.674-1.993 6.021-4.146 1.279-2.03 1.62-4.49 1.279-6.838-.424-2.922-1.924-5.634-3.825-7.857a17.808 17.808 0 0 0-3.632-3.268c-5.646-3.751-12.616-4.229-19.211-3.963-5.984.241-12.08 1.354-17.355 4.301-3.03 1.698-5.76 4.014-7.699 6.919-.275.413-.532.837-.771 1.273-.264.487.479.923.743.436l.002.017z" fill="#202A44"/><path d="M89.34 162.539a.429.429 0 0 0 .304-.734.429.429 0 0 0-.734.304.43.43 0 0 0 .43.43zM87.846 170.272c-.57.006-1.14.057-1.703.155-.88.143-1.85.398-2.515 1.026-.79.746-.702 1.878-.154 2.744.696 1.101 1.984 1.48 3.217 1.574 1.45.112 2.895-.137 4.332-.286.545-.058.55-.921 0-.861-1.147.127-2.311.307-3.478.322-1.015 0-2.248-.064-3.025-.809a2.04 2.04 0 0 1-.62-1.187.939.939 0 0 1 .265-.806c.513-.545 1.376-.734 2.093-.86a9.296 9.296 0 0 1 1.588-.143.433.433 0 0 0 .43-.43.432.432 0 0 0-.43-.43v-.009zM113.772 174.911a36.216 36.216 0 0 1-7.226.212 6.089 6.089 0 0 1-1.984-.424c-.499-.235-.935.507-.436.743 1.291.61 2.867.613 4.275.622 1.48 0 2.962-.072 4.439-.204.309-.026.622-.054.932-.089.541-.063.55-.923 0-.86z" fill="#202A44"/><path d="M104.453 162.955c-.08-.189.026.06.055.135a20.439 20.439 0 0 1 .854 2.801c.444 1.924.645 3.997.146 5.929a6.287 6.287 0 0 1-1.471 2.75c-.974 1.035-2.293 1.617-3.632 2.007a9.86 9.86 0 0 1-4.769.301 9.22 9.22 0 0 1-3.713-1.7c-2.228-1.678-3.684-4.186-4.587-6.784-.321-.912-.459-1.849-.691-2.781a9.32 9.32 0 0 0-.53-1.511c-.273-.631-.674-1.228-.887-1.878a1.327 1.327 0 0 1-.091-.574.987.987 0 0 1 .066-.158c.292-.144.625-.184.943-.111 1.21.154 2.4.725 3.44 1.307.287.155.574.321.835.493.26.172.462.364.803.233.246-.095.25-.115.49-.21a19.687 19.687 0 0 1 3.349-.966 20.523 20.523 0 0 1 3.888-.39c.367 0 .935.138 1.236-.112.218-.18.407-.407.619-.599.473-.432.972-.835 1.494-1.207a13.593 13.593 0 0 1 2.159-1.27 4.585 4.585 0 0 1 1.001-.379c.1-.02 0 .017.086 0 .134-.051-.018.023 0 0 .017-.023 0 0 .017 0a.167.167 0 0 1-.072-.072c-.019-.057-.019-.063 0-.017v.104c0 .034-.02.134-.043.229a7.593 7.593 0 0 1-.235.751c-.204.574-.424 1.147-.591 1.72a4.763 4.763 0 0 0-.232 1.721c.049.545.909.55.86 0-.083-.903.287-1.807.574-2.638.223-.611.676-1.462.487-2.13-.269-.964-1.517-.367-2.082-.121a14.317 14.317 0 0 0-3.153 1.947c-.539.416-1.046.871-1.517 1.362l.304-.126a21.298 21.298 0 0 0-6.469.737 15.13 15.13 0 0 0-2.629.929h.436a15.857 15.857 0 0 0-2.664-1.434 8.538 8.538 0 0 0-2.523-.72c-.59-.051-1.31.046-1.626.623-.387.713.063 1.599.396 2.236.43.779.767 1.605 1.003 2.463.158.639.25 1.29.422 1.924a16.66 16.66 0 0 0 2.732 5.622 11.62 11.62 0 0 0 4.677 3.771c2.172.873 4.577.979 6.818.301 1.97-.573 3.828-1.52 4.96-3.283.861-1.356 1.205-2.993 1.231-4.588a17.762 17.762 0 0 0-1.454-7.093c-.195-.488-.935-.049-.72.456zM124.504 161.051c-.9.692-1.708 1.497-2.403 2.394-1.296 1.64-2.294 3.647-2.191 5.789a7.169 7.169 0 0 0 1.52 3.945c.33.436 1.075 0 .743-.433a5.952 5.952 0 0 1-.924-6.222 11.52 11.52 0 0 1 2.899-4.039c.198-.187.399-.37.608-.545.063-.052.129-.101.192-.155.063-.055-.066.049 0 0 .436-.33 0-1.075-.433-.743l-.011.009z" fill="#202A44"/><path d="M120.326 25.635c0-1.87-.034-3.754-.459-5.574-.186-.8-.45-1.617-.286-2.423.083-.433.286-.86.192-1.299-.144-.625-.832-.935-1.331-1.342-1.651-1.353.123-4.338-4.048-4.619-.597-.04-1.176.235-1.775.227-1.299-.018-2.294-1.276-3.587-1.4-.768-.074-1.508.267-2.265.413-1.376.264-2.801-.12-4.195.017-1.244.127-2.403.663-3.532 1.19-1.497.697-3.255 1.85-2.997 3.47 0 0-1.967.837-2.41 2.007-.445 1.17-1.053 5.16-.233 6.924.112.241.602.663 1.359 1.204-.574 4.083-1.147 16.782 7.265 16.946 9.637.183 18.007 2.543 17.826-15.466.152-.103.31-.195.476-.275z" fill="#fff"/></g><path fill="#FDB22B" d="M89.797 160.63h5.675v5.675h-5.675z"/><path fill="#6677FB" d="M89.797 167.251h5.675v5.675h-5.675z"/><path fill="#29DDCC" d="M96.418 167.251h5.675v5.675h-5.675z"/><path fill="#6677FB" d="M89.797 173.871h5.675v5.675h-5.675zM96.418 160.63h5.675v5.675h-5.675zM96.418 173.871h5.675v5.675h-5.675z"/><path fill="#A7B1FC" d="M103.039 167.251h5.675v5.675h-5.675zM82.285 16.814h5.675v5.675h-5.675z"/><path fill="#6677FB" d="M91.743 24.381h5.675v5.675h-5.675z"/><path fill="#29DDCC" d="M91.743 31.002h5.675v5.675h-5.675z"/><path fill="#A7B1FC" d="M98.364 24.381h5.675v5.675h-5.675z"/><path fill="#6677FB" d="M98.364 17.76h5.675v5.675h-5.675zM98.364 31.002h5.675v5.675h-5.675z"/><path fill="#F77779" d="M98.364 37.622h5.675v5.675h-5.675z"/><path fill="#6677FB" d="M89.851 41.405h5.675v5.675h-5.675z"/><path fill="#29DDCC" d="M72.827 32.893h5.675v5.675h-5.675zM40.059 31.562h5.675v5.675h-5.675z"/><path fill="#6677FB" d="M19.422 13.353h5.675v5.675h-5.675z"/><path fill="#FDB22B" d="M60.695 40.059h5.675v5.675h-5.675zM104.984 24.381h5.675v5.675h-5.675z"/><path fill="#29DDCC" d="M104.984 17.76h5.675v5.675h-5.675z"/><path fill="#6677FB" d="M104.984 31.002h5.675v5.675h-5.675zM104.984 37.622h5.675v5.675h-5.675zM111.605 24.381h5.675v5.675h-5.675z"/><path fill="#A7B1FC" d="M111.605 31.002h5.675v5.675h-5.675z"/><path fill="#6677FB" d="M111.605 37.622h5.675v5.675h-5.675z"/><path fill="#F77779" d="M118.225 24.381h5.675v5.675h-5.675z"/><path fill="#6677FB" d="M118.225 31.002h5.675v5.675h-5.675z"/><path fill="#FDB22B" d="M20.808 106.665h5.675v5.675h-5.675z"/><path fill="#29DDCC" d="M20.808 113.286h5.675v5.675h-5.675z"/><path fill="#A7B1FC" d="M27.428 106.665h5.675v5.675h-5.675z"/><path fill="#6677FB" d="M27.428 113.286h5.675v5.675h-5.675z"/><path fill="#F77779" d="M27.428 119.907h5.675v5.675h-5.675z"/><defs><clipPath id="a"><path fill="#fff" transform="translate(0 9.194)" d="M0 0h141.87v178.806H0z"/></clipPath></defs></svg>