<svg width="98" height="24" fill="none">
  <path d="M92.763 10.852c-.301-.002-.6-.05-.888-.142l.024.847a4.656 4.656 0 001.777.333c2.194 0 3.665-1.273 3.665-3.11 0-1.769-1.471-3.314-3.97-3.314-3.433 0-5.559 2.839-5.559 6.234 0 3.3 2.01 5.325 5.044 5.325 2.359 0 3.878-1.128 4.42-1.789l-.233-.872a4.457 4.457 0 01-2.568.848c-1.752 0-3.48-.848-3.48-4.218 0-2.84.888-4.461 2.174-4.461.864 0 1.495.636 1.495 1.954 0 1.602-.747 2.357-1.893 2.357" fill="#374677"/>
  <path fill-rule="evenodd" clip-rule="evenodd" d="M24.147 11.237l3.094-.92h-.004c.374-.094.49-.187.49-.564V8.435c0-1.416-.771-1.841-1.728-1.841-1.077 0-1.45.45-1.45 1.322v.478a1.11 1.11 0 01-.845 1.087 2.86 2.86 0 01-.502.053c-.796 0-1.402-.442-1.402-1.217 0-1.509 2.286-2.867 5.16-2.867 2.427 0 3.854.957 3.854 2.985v6.347c0 .564.273.774.675.774a.604.604 0 00.454-.186l.281.637c-.602.73-1.338 1.034-2.41 1.034-1.331 0-1.87-.754-2.034-1.46-.507.685-1.532 1.44-3.216 1.44-1.896 0-3.102-1.282-3.102-2.84 0-1.46.908-2.4 2.685-2.944zm2.11 4.125c.884 0 1.47-.495 1.47-1.44l-.004-2.916-1.543.612c-1.093.471-1.607 1.201-1.607 2.122 0 1.054.699 1.622 1.684 1.622zM80.381 14.73l3.243.048-.011-.004c2.218.02 3.785.892 3.785 2.969 0 2.356-2.524 4.619-6.888 4.619-3.014 0-4.67-1.282-4.67-2.84 0-.916.482-1.67 1.608-2.193.269.075.573.187.905.31l.417.152a1.815 1.815 0 00-.96 1.594c0 1.294 1.354 1.98 3.15 1.98 2.223 0 3.83-.852 3.83-2.288 0-1.225-.957-1.602-2.383-1.65l-1.82-.07a9.266 9.266 0 01-1.564-.243 3.32 3.32 0 01-1.081-.495 2.083 2.083 0 01-.88-1.768c0-.781.79-1.51 1.408-2.079.07-.063.136-.125.2-.184a3.592 3.592 0 01-2.034-3.245c0-2.072 1.8-3.865 4.951-3.865.096 0 .189.005.281.01.09.005.18.01.27.01.056-.142.285-.624.285-.624.956-1.886 2.648-4.628 5.273-4.628 1.88 0 2.093 1.1 2.093 1.939 0 .84-.928 1.622-1.675 1.622-.606 0-.893-.298-1.146-.562-.06-.062-.117-.122-.177-.176-.478-.422-.775-.62-1.205-.47-1.047.365-2.054 2.091-2.468 2.802l-.132.223.132.024c.326.069.645.166.953.292l.177.082c.124.056.245.121.361.194l.21.122a3.539 3.539 0 011.727 3.017c0 2.121-1.8 3.89-4.975 3.89a6.56 6.56 0 01-2.146-.329 1.455 1.455 0 00-.305.775c0 .73.49 1.014 1.261 1.038zm3.07-5.379c0-1.768-.445-2.92-1.868-2.92s-1.845 1.128-1.845 2.92c0 1.793.422 2.949 1.845 2.949s1.869-1.18 1.869-2.949z" fill="#374677"/>
  <path d="M13.85 14.417c0 1.273.804 2.616 3.083 2.616a3.89 3.89 0 003.617-2.239l-.587-.47a2.17 2.17 0 01-1.704.92c-.747 0-1.33-.405-1.33-1.273V7.38h3.034V6.248h-3.05V2.943h-1.077c-.117 1.387-1.543 3.444-3.48 3.541v.896h1.495v7.037zM3.47 11.752c.048-.263.064-.831-.177-1.018a.92.92 0 00-.446-.215C.93 10.26-.4 13.691 1.039 15.183c.916.954 2.162 1.712 4.468 1.85 4.02.243 6.35-2.113 6.51-4.818.154-2.515-1.691-3.74-4.21-5.094l-1.705-.84c-1.45-.81-2.202-1.48-2.15-2.798C4.085 1.694 5.56.79 7.167.96c1.439.154 1.54.994 1.495 2.097l-.06 1.079c-.016.201.05.4.181.553a.745.745 0 00.518.258c.98.06 2.154-.406 2.23-1.683.085-1.456-.759-3.038-4.255-3.245C3.498-.228 1.17 1.946 1.03 4.32c-.12 1.999.88 3.288 3.191 4.538l1.817.916c1.768.982 2.813 1.78 2.7 3.476-.112 1.695-.932 2.977-3.022 2.758-2.09-.22-2.298-2.089-2.343-2.79a7.847 7.847 0 01.104-1.464M34.563 8.248v6.274c0 .99-.165 1.367-1.101 1.367h-.402v.94h6.35v-.932h-.482c-.957 0-1.307-.377-1.307-1.367V8.597a13.322 13.322 0 011.632-1.217c.09.873.84 1.524 1.708 1.485a1.692 1.692 0 001.672-1.68c0-.916-.655-1.72-1.869-1.72-.888 0-2.218.638-3.175 1.98V7.38c0-.896-.63-1.817-2.15-1.817a7.62 7.62 0 00-2.612.52v.871c.2-.044.403-.067.607-.069.804 0 1.145.54 1.145 1.367M49.284 15.244c-.747 0-1.33-.405-1.33-1.273V7.38h3.034V6.244h-3.034V2.943h-1.077c-.117 1.391-1.54 3.444-3.48 3.541v.896h1.495v7.037c0 1.273.803 2.616 3.082 2.616a3.882 3.882 0 003.617-2.239l-.583-.47a2.177 2.177 0 01-1.704.92M59.81 5.434a4.694 4.694 0 00-3.248 1.273l.068-1.273h-.803c-.631.494-2.058.896-3.806.896v.94h.699c.607 0 .804.191.804.755v12.22c0 .99-.165 1.342-1.121 1.342H52v.92h6.373v-.932h-.606c-.933 0-1.166-.405-1.166-1.367V8.402c0-.965.7-1.508 1.773-1.508 1.45 0 2.78 1.155 2.78 4.501 0 3.087-1.241 4.502-2.724 4.62-.233.02-.422.024-.627.024v.811c.274.033.551.05.828.049 3.363 0 5.747-2.332 5.747-6.173 0-3.244-1.962-5.3-4.554-5.3" fill="#374677"/>
  <path fill-rule="evenodd" clip-rule="evenodd" d="M75.832 15.362l.282.637.011.008a2.801 2.801 0 01-2.41 1.034c-1.31 0-1.845-.754-2.01-1.46-.507.685-1.535 1.44-3.215 1.44-1.901 0-3.107-1.282-3.107-2.84 0-1.46.913-2.4 2.685-2.944l3.082-.92c.374-.094.49-.187.49-.564V8.435c0-1.416-.767-1.841-1.728-1.841-1.073 0-1.446.45-1.446 1.322v.47c.003.529-.363.987-.876 1.095-.166.033-.334.05-.503.053-.791 0-1.398-.442-1.398-1.217 0-1.509 2.286-2.867 5.16-2.867 2.427 0 3.854.957 3.854 2.985v6.339c0 .564.273.774.675.774a.603.603 0 00.454-.186zm-5.65.008c.888 0 1.47-.495 1.47-1.44l-.003-2.916-1.54.613c-1.093.47-1.607 1.2-1.607 2.12 0 1.055.7 1.623 1.68 1.623z" fill="#374677"/>
  <path d="M48.746 21.766c-3.296-.406-8.842-1.034-14.392-1.359-5.023-.288-9.733-.377-11.9-.377-12.32 0-12.73.304-20 1.079-2.488.263-2.468 3.183.297 2.867 4.115-.466 9.866-1.063 14.785-1.391 4.067-.268 10.227-.604 16.987-.604 5.94 0 11.192.117 14.162.336a.272.272 0 00.279-.094.278.278 0 00.032-.295.273.273 0 00-.25-.154" fill="#6573FF"/>
</svg>
