<svg width="143" height="32" viewBox="0 0 143 32" fill="none"><defs></defs><g clip-path="url(#clip0)"><path fill-rule="evenodd" clip-rule="evenodd" d="M.6 28.6c.4-.5 1-.8 1.7-.9 21.7-3.6 43.6-3.6 65.2-.1.6.1 1 .3 1.2.5.2.1.2.4.2.7 0 .3-.2.4-.4.5a200 200 0 00-66 2.7h-.1c-.5 0-1-.2-1.1-.3-.5-.3-.9-.9-1-1.5 0-.6 0-1.1.3-1.6z" fill="#6573FF"></path><path d="M15.7 11.7a10 10 0 00-2.5-1.3c-1-.4-2.1-.7-3.5-1L7 8.6c-.7-.3-1.2-.6-1.5-.9-.3-.3-.4-.7-.4-1.2 0-.9.4-1.5 1.1-2 .8-.5 1.7-.8 3-.8 1.1 0 2.2.2 3.2.6 1 .3 2.1 1 3.1 1.7L17 2.5c-.5-.5-1.3-1-2-1.3A14.8 14.8 0 009 0C7.4 0 6 .3 4.6.9a7.7 7.7 0 00-3 2.4 6.5 6.5 0 00-.7 5.9c.3.7.7 1.3 1.3 1.8.6.5 1.5 1 2.5 1.3 1 .4 2.2.8 3.6 1l2.7.8c.6.2 1.1.5 1.4.9.3.3.5.7.5 1.2a2 2 0 01-1.1 1.8c-.8.5-1.8.7-3.2.7a11.9 11.9 0 01-7-2.2L0 19.9c.7.5 1.5 1 2.4 1.4a15.6 15.6 0 006.1 1.2c2 0 3.6-.3 5-.9a7 7 0 003-2.3 6 6 0 001-3.5c0-1 0-1.7-.4-2.3-.3-.7-.7-1.3-1.4-1.8zM24.4 1.4L19.8 3v13.3c0 2 .4 3.5 1.5 4.6 1 1 2.4 1.6 4.3 1.6a8.3 8.3 0 002.7-.4v-3.6a25.5 25.5 0 00-1.5.2c-.4 0-.8 0-1.2-.2-.4-.2-.7-.4-.9-.8-.2-.4-.3-.9-.3-1.5v-6h4V6.5h-4V1.4zM41.8 8.8c-.4-.7-1-1.2-1.6-1.7a6.4 6.4 0 00-6.9.1 7 7 0 00-2.4 2.9 9.8 9.8 0 00-.9 4.3c0 1.6.3 3 .9 4.2a6.6 6.6 0 002.4 2.9c1 .6 2.2 1 3.6 1 1.2 0 2.4-.3 3.3-1 .7-.4 1.2-1 1.6-1.6v2.3h4.6V6.6h-4.6v2.2zm-1 8.9c-.6.8-1.4 1.2-2.6 1.2-1.1 0-2-.4-2.7-1.2-.6-.7-.9-1.9-.9-3.3 0-1.5.3-2.6 1-3.4.6-.8 1.5-1.2 2.6-1.2s2 .4 2.6 1.2c.7.8 1 1.9 1 3.4 0 1.4-.3 2.5-1 3.3zM66.8 1.4L62 3v13.3c0 2 .5 3.5 1.5 4.6 1 1 2.5 1.6 4.4 1.6a8.3 8.3 0 002.7-.4v-3.6a25.6 25.6 0 00-1.5.2c-.5 0-.9 0-1.2-.2-.4-.2-.7-.4-1-.8-.1-.4-.3-.9-.3-1.5v-6h4V6.5h-4V1.4zM86.1 7.2c-1-.7-2.2-1-3.5-1-1.3 0-2.4.3-3.4 1-.8.5-1.4 1.2-1.7 2l-.3-2.6h-4.4l.2 2.2v20.3h4.7v-9.2c.4.7.9 1.2 1.5 1.6 1 .6 2 1 3.4 1a6.4 6.4 0 006-3.9c.5-1.2.8-2.6.8-4.2s-.3-3-.9-4.3a7 7 0 00-2.4-2.9zM84 17.7c-.7.8-1.5 1.2-2.7 1.2-1.1 0-2-.4-2.6-1.2-.6-.8-1-2-1-3.4s.4-2.6 1-3.4c.6-.8 1.5-1.2 2.6-1.2 1.2 0 2 .4 2.7 1.2.6.9 1 2 1 3.4-.1 1.5-.4 2.7-1 3.4zM102.7 8.8c-.3-.7-.9-1.2-1.6-1.7a6.4 6.4 0 00-6.9.1 7 7 0 00-2.4 2.9 9.8 9.8 0 00-.8 4.3c0 1.6.3 3 .8 4.2a6.6 6.6 0 002.5 2.9c1 .6 2.2 1 3.6 1 1.2 0 2.3-.3 3.3-1 .7-.4 1.2-1 1.6-1.6v2.3h4.5V6.6h-4.6v2.2zm-.9 8.9c-.6.8-1.5 1.2-2.6 1.2-1.2 0-2-.4-2.7-1.2-.6-.7-1-1.9-1-3.3s.4-2.6 1-3.4c.7-.8 1.6-1.2 2.7-1.2s2 .4 2.6 1.2c.6.8 1 1.9 1 3.4 0 1.4-.4 2.5-1 3.3zM121.4 8.8c-.4-.7-.9-1.2-1.6-1.7a6.5 6.5 0 00-7 0c-1 .7-1.8 1.7-2.4 2.8a8.8 8.8 0 00-.9 4c0 1.6.3 3 1 4.2.5 1.1 1.3 2 2.4 2.7a6.6 6.6 0 006 .5 6.1 6.1 0 002.5-2.2v2.7c0 1.3-.3 2.2-1 2.9-.6.6-1.6.9-3 .9a12.1 12.1 0 01-5.5-1.4l-.7 3.4c1.8 1 4 1.5 6.4 1.5 2.8 0 4.9-.7 6.3-2 1.4-1.2 2.1-3.1 2.1-5.6v-15h-4.6v2.3zm-1 8.3c-.6.7-1.5 1.1-2.6 1.1s-2-.4-2.7-1.1c-.6-.8-1-1.8-1-3.2 0-1.3.4-2.3 1-3 .7-.8 1.6-1.2 2.7-1.2 1.2 0 2 .4 2.7 1.2.6.7 1 1.8 1 3 0 1.4-.4 2.4-1 3.2zM55.9 7.3c-.7.5-1.1 1.2-1.5 2l-.3-2.7h-4.3l.2 2.2V22.2h4.6V14c0-.7.2-1.4.5-2 .3-.6.7-1 1.2-1.3.6-.3 1.3-.5 2.1-.5.5 0 1 0 1.5.2V6.3H59a5 5 0 00-3.1 1zM143 14c0-1.6-.4-3-1-4.2-.5-1.2-1.3-2-2.4-2.7-1-.7-2.3-1-3.7-1-1.6 0-2.9.4-4 1-1.1.7-2 1.7-2.7 3a9 9 0 00-1 4.2c0 1.6.4 3 1 4.3a6.9 6.9 0 003 2.8c1.2.6 2.7 1 4.4 1 1.1 0 2.2-.2 3.3-.5 1-.4 2-.8 2.7-1.4l-1.2-3.1a8 8 0 01-4.6 1.5c-1.4 0-2.5-.4-3.2-1.2-.4-.5-.7-1.2-.8-2.1h10l.1-1.6zm-10.2-1.6c.1-.8.4-1.4.7-1.9a3 3 0 012.5-1.1c1 0 1.7.3 2.2 1 .4.5.6 1.2.7 2h-6.1z" fill="#202945"></path></g><defs><clipPath id="clip0"><path fill="#fff" d="M0 0h142.9v32H0z"></path></clipPath></defs></svg>
