<svg width="16" height="16" viewBox="0 0 16 16" fill="none" xmlns="http://www.w3.org/2000/svg">
<path d="M14.8784 6.27828V0H0.989502V6.56657C5.60306 6.1021 10.2488 6.00601 14.8784 6.27828Z" fill="#6573FF"/>
<path d="M14.8784 7.38344C10.2327 7.28734 5.58701 7.57563 0.989533 8.21627V9.27333C0.989533 9.27333 0.844857 11.7238 3.4008 13.3254C5.81206 14.8309 7.70893 15.8879 7.9179 16.0001C8.14295 15.8719 10.0398 14.8309 12.435 13.3254C14.9909 11.7238 14.8463 9.27333 14.8463 9.27333L14.8784 7.38344Z" fill="#202945"/>
<path d="M14.8784 7.38336V6.58256V6.27825C10.2488 6.00598 5.60306 6.10208 0.989502 6.56654V6.66264V8.36034V8.21619C5.58698 7.57555 10.2327 7.28726 14.8784 7.38336Z" fill="white"/>
</svg>
